<svg id="journalist" xmlns="http://www.w3.org/2000/svg" width="36.274" height="43.521" viewBox="0 0 36.274 43.521">
  <path id="Path_522" data-name="Path 522" d="M58.811,2.215H56.46V.663a.663.663,0,0,0-1.325,0V2.215H52.594V.663a.663.663,0,0,0-1.325,0V2.215H48.727V.663a.663.663,0,0,0-1.325,0V2.215H44.751V.663a.663.663,0,0,0-1.325,0V2.215H40.885V.663a.663.663,0,0,0-1.326,0V2.215H37.019V.663a.663.663,0,1,0-1.325,0V2.215H33.462a.663.663,0,0,0-.663.663V42.807a.663.663,0,0,0,.663.663H58.811a.663.663,0,0,0,.663-.663V2.878A.663.663,0,0,0,58.811,2.215Zm-.663,37.609h-3.7a13.481,13.481,0,0,0,3.7-2.812Zm-6.472-.353a7.248,7.248,0,0,0,1.343-3.683h4.437A11.952,11.952,0,0,1,51.676,39.472ZM34.124,3.541h1.569V5.164a.681.681,0,0,0,.642.69.663.663,0,0,0,.683-.662V3.541H39.56V5.164a.681.681,0,0,0,.642.69.663.663,0,0,0,.683-.662V3.541h2.541V5.164a.681.681,0,0,0,.642.69.663.663,0,0,0,.683-.662V3.541H47.4V5.164a.681.681,0,0,0,.642.69.663.663,0,0,0,.683-.662V3.541h2.541V5.164a.681.681,0,0,0,.642.69.663.663,0,0,0,.683-.662V3.541h2.541V5.164a.681.681,0,0,0,.642.69.663.663,0,0,0,.683-.662V3.541h1.688V34.463H52.406a.665.665,0,0,0-.662.634,5.461,5.461,0,0,1-1.581,4.055,2.8,2.8,0,0,1-1.847.673H34.124Zm0,38.6V41.15H58.148v.994Z" transform="translate(-32.799 0)" fill="#5b5b5b"/>
  <rect id="Rectangle_103" data-name="Rectangle 103" width="13.255" height="1.325" transform="translate(9.964 8.505)" fill="#5b5b5b"/>
  <rect id="Rectangle_104" data-name="Rectangle 104" width="4.197" height="1.325" transform="translate(3.447 8.505)" fill="#5b5b5b"/>
  <rect id="Rectangle_105" data-name="Rectangle 105" width="5.192" height="1.325" transform="translate(18.027 13.586)" fill="#5b5b5b"/>
  <rect id="Rectangle_106" data-name="Rectangle 106" width="11.598" height="1.325" transform="translate(3.447 13.586)" fill="#5b5b5b"/>
  <rect id="Rectangle_107" data-name="Rectangle 107" width="10.825" height="1.325" transform="translate(12.394 18.778)" fill="#5b5b5b"/>
  <rect id="Rectangle_108" data-name="Rectangle 108" width="6.848" height="1.325" transform="translate(3.447 18.778)" fill="#5b5b5b"/>
  <rect id="Rectangle_109" data-name="Rectangle 109" width="6.848" height="1.325" transform="translate(3.447 28.83)" fill="#5b5b5b"/>
  <rect id="Rectangle_110" data-name="Rectangle 110" width="3.645" height="1.325" transform="translate(19.574 23.859)" fill="#5b5b5b"/>
  <rect id="Rectangle_111" data-name="Rectangle 111" width="9.278" height="1.325" transform="translate(8.749 23.859)" fill="#5b5b5b"/>
  <rect id="Rectangle_112" data-name="Rectangle 112" width="3.203" height="1.325" transform="translate(3.447 23.859)" fill="#5b5b5b"/>
  <path id="Path_523" data-name="Path 523" d="M301.948,21.53a.663.663,0,0,0-.663.663v36.67A2.158,2.158,0,0,0,302.8,60.92v1.087a.663.663,0,1,0,1.325,0V60.9a2.156,2.156,0,0,0,1.467-2.04V22.988a1.658,1.658,0,0,1,.985,1.513V40.628a.663.663,0,1,0,1.325,0V24.5a2.987,2.987,0,0,0-2.724-2.971C305.094,21.523,301.948,21.53,301.948,21.53Zm2.319,1.325v8.886h-1.657V22.856Zm-.828,36.836a.829.829,0,0,1-.828-.828v-25.8h1.657v25.8A.829.829,0,0,1,303.439,59.691Z" transform="translate(-271.629 -19.149)" fill="#fe5754"/>
</svg>
