<svg id="microphone" xmlns="http://www.w3.org/2000/svg" width="44.011" height="44.011" viewBox="0 0 44.011 44.011">
  <path id="Path_524" data-name="Path 524" d="M170.08,30.991a8.089,8.089,0,0,0,8.08-8.08V8.08a8.08,8.08,0,0,0-16.16,0V22.911A8.089,8.089,0,0,0,170.08,30.991Zm0-29.272a6.368,6.368,0,0,1,6.361,6.361v7.1H163.719V8.08A6.368,6.368,0,0,1,170.08,1.719ZM163.719,16.9h12.722v6.007a6.361,6.361,0,0,1-12.722,0Zm0,0" transform="translate(-148.075)" fill="#5b5b5b"/>
  <path id="Path_525" data-name="Path 525" d="M222.528,113.032h4.183a.86.86,0,1,0,0-1.719h-4.183a.86.86,0,1,0,0,1.719Zm0,0" transform="translate(-202.614 -101.745)" fill="#fe5754"/>
  <path id="Path_526" data-name="Path 526" d="M222.528,75.762h4.183a.86.86,0,1,0,0-1.719h-4.183a.86.86,0,1,0,0,1.719Zm0,0" transform="translate(-202.614 -67.678)" fill="#fe5754"/>
  <path id="Path_527" data-name="Path 527" d="M140.84,256.531a.86.86,0,0,0-.86.86,10.146,10.146,0,0,1-20.292,0,.86.86,0,1,0-1.719,0,11.886,11.886,0,0,0,9.331,11.592v4.346h-.068a4.308,4.308,0,0,0-4.3,4.3.86.86,0,0,0,.86.86H135.88a.86.86,0,0,0,.86-.86,4.308,4.308,0,0,0-4.3-4.3h-.067v-4.346a11.885,11.885,0,0,0,9.331-11.592.86.86,0,0,0-.86-.86Zm-5.966,20.241H124.8a2.588,2.588,0,0,1,2.437-1.725h5.2A2.589,2.589,0,0,1,134.873,276.772Zm-4.224-3.444h-1.631v-4.1c.27.018.541.029.815.029s.546-.01.815-.029Zm0,0" transform="translate(-107.828 -234.48)" fill="#5b5b5b"/>
  <path id="Path_528" data-name="Path 528" d="M40.86,93.406a.86.86,0,0,0-.86.86v8.391a.86.86,0,0,0,1.719,0V94.266A.86.86,0,0,0,40.86,93.406Zm0,0" transform="translate(-36.562 -85.377)" fill="#fe5754"/>
  <path id="Path_529" data-name="Path 529" d="M120.86,124.208a.86.86,0,0,0,.86-.86v-4.094a.86.86,0,1,0-1.719,0v4.094A.86.86,0,0,0,120.86,124.208Zm0,0" transform="translate(-109.685 -108.217)" fill="#fe5754"/>
  <path id="Path_530" data-name="Path 530" d="M.86,54a.86.86,0,0,0-.86.86v14.3a.86.86,0,1,0,1.719,0V54.86A.86.86,0,0,0,.86,54Zm0,0" transform="translate(0 -49.358)" fill="#fe5754"/>
  <path id="Path_531" data-name="Path 531" d="M80.86,83.316a.86.86,0,0,0-.86.86V95.795a.86.86,0,1,0,1.719,0V84.176A.86.86,0,0,0,80.86,83.316Zm0,0" transform="translate(-73.123 -76.155)" fill="#fe5754"/>
  <path id="Path_532" data-name="Path 532" d="M452.86,93.406a.86.86,0,0,0-.86.86v8.391a.86.86,0,0,0,1.719,0V94.266A.86.86,0,0,0,452.86,93.406Zm0,0" transform="translate(-413.146 -85.377)" fill="#fe5754"/>
  <path id="Path_533" data-name="Path 533" d="M372.86,124.208a.859.859,0,0,0,.86-.86v-4.094a.86.86,0,1,0-1.719,0v4.094A.86.86,0,0,0,372.86,124.208Zm0,0" transform="translate(-340.023 -108.217)" fill="#fe5754"/>
  <path id="Path_534" data-name="Path 534" d="M492.86,54a.859.859,0,0,0-.86.86v14.3a.86.86,0,1,0,1.719,0V54.86A.859.859,0,0,0,492.86,54Zm0,0" transform="translate(-449.708 -49.358)" fill="#fe5754"/>
  <path id="Path_535" data-name="Path 535" d="M412.86,218.488a.859.859,0,1,0,.608.251A.866.866,0,0,0,412.86,218.488Zm0,0" transform="translate(-376.585 -199.707)" fill="#5b5b5b"/>
  <path id="Path_536" data-name="Path 536" d="M412.86,83.316a.86.86,0,0,0-.86.86v7.969a.86.86,0,1,0,1.719,0V84.176A.86.86,0,0,0,412.86,83.316Zm0,0" transform="translate(-376.585 -76.155)" fill="#fe5754"/>
  <path id="Path_537" data-name="Path 537" d="M246.86,261.858a4.472,4.472,0,0,0,4.468-4.467.86.86,0,0,0-1.719,0,2.751,2.751,0,0,1-2.748,2.748.86.86,0,0,0,0,1.719Zm0,0" transform="translate(-224.854 -234.48)" fill="#5b5b5b"/>
  <path id="Path_538" data-name="Path 538" d="M288.829,223.719a.86.86,0,1,0-.607-.252A.866.866,0,0,0,288.829,223.719Zm0,0" transform="translate(-263.215 -202.917)" fill="#5b5b5b"/>
</svg>
