<svg xmlns="http://www.w3.org/2000/svg" width="49" height="46.735" viewBox="0 0 49 46.735">
  <g id="pen" transform="translate(0 0.001)">
    <g id="Group_95" data-name="Group 95" transform="translate(17.745 1.012)">
      <path id="Path_566" data-name="Path 566" d="M392.051,209.52h7.612v7.957h-7.612Zm0,0" transform="translate(-369.438 -188.965)" fill="#fff"/>
      <path id="Path_567" data-name="Path 567" d="M399.663,9.84V17.8h-7.612V9.84Zm0,0" transform="translate(-369.438 -9.84)" fill="#fff"/>
      <path id="Path_568" data-name="Path 568" d="M179.134,149.852l6.755,9.939-2.026,8.542H174.4l-2.026-8.542Zm1.51,11.821a1.51,1.51,0,1,0-1.51,1.51A1.51,1.51,0,0,0,180.644,161.673Zm0,0" transform="translate(-172.379 -135.439)" fill="#fe5754"/>
    </g>
    <path id="Path_569" data-name="Path 569" d="M194.063,350.73l-1.006,6.29-.014,0h-9.349l-.014,0-1.006-6.29Zm0,0" transform="translate(-163.867 -314.626)" fill="#fff"/>
    <path id="Path_570" data-name="Path 570" d="M201.828,411.814l-.565,3.534h-8.247l-.565-3.534.014,0h9.349Zm0,0" transform="translate(-172.638 -369.421)" fill="#fff"/>
    <path id="Path_571" data-name="Path 571" d="M208.643,13.819V17.8h-7.611V9.84h7.611Zm0,0" transform="translate(-180.337 -8.828)" fill="#fff"/>
    <path id="Path_572" data-name="Path 572" d="M224.838,250a1.511,1.511,0,1,1-1.51,1.511,1.511,1.511,0,0,1,1.51-1.511Zm0,0" transform="translate(-200.338 -224.265)" fill="#5b5b5b"/>
    <path id="Path_573" data-name="Path 573" d="M10,209.512h7.612v7.957H10Zm0,0" transform="translate(-8.971 -187.945)" fill="#fff"/>
    <path id="Path_574" data-name="Path 574" d="M17.612,13.819V17.8H10V9.84h7.612Zm0,0" transform="translate(-8.971 -8.828)" fill="#fff"/>
    <path id="Path_575" data-name="Path 575" d="M172.64,142.212a.824.824,0,0,0-1.362,0l-6.755,9.939a.822.822,0,0,0-.12.653l2.025,8.522a.807.807,0,0,0,.8.614h9.459a.807.807,0,0,0,.8-.614l2.025-8.532a.811.811,0,0,0-.12-.649Zm.006,12.283a.687.687,0,1,1-.687-.688A.687.687,0,0,1,172.646,154.5Zm3.391,5.8h-8.156l-1.792-7.536,5.047-7.405v6.96a2.334,2.334,0,1,0,1.647,0v-6.96l5.047,7.405Zm0,0" transform="translate(-147.459 -127.25)" fill="#5b5b5b"/>
    <path id="Path_576" data-name="Path 576" d="M186.882,343H175.491a.8.8,0,0,0-.813.933l1.572,9.812a.813.813,0,0,0,.813.682h8.247a.816.816,0,0,0,.813-.685l1.572-9.819a.788.788,0,0,0-.187-.649.808.808,0,0,0-.627-.273Zm-.966,1.647-.742,4.632H177.2l-.743-4.632Zm-8.151,8.132-.3-1.853h7.448l-.3,1.853Zm0,0" transform="translate(-156.687 -307.69)" fill="#5b5b5b"/>
    <path id="Path_577" data-name="Path 577" d="M47.971,0H40.358a1.02,1.02,0,0,0-1.035,1.013v2.9H29.338v-2.9A1.019,1.019,0,0,0,28.306,0H20.694a1.019,1.019,0,0,0-1.033,1.013v2.9H9.676v-2.9A1.02,1.02,0,0,0,8.642,0H1.029A1.015,1.015,0,0,0,0,1.012V8.969A1.017,1.017,0,0,0,1.029,9.985H3.809v10.6H1.029A.988.988,0,0,0,0,21.567v7.957a1.046,1.046,0,0,0,1.029,1.049H8.642a1.05,1.05,0,0,0,1.035-1.049V21.567a.992.992,0,0,0-1.035-.979H5.868V9.985H8.642A1.022,1.022,0,0,0,9.676,8.969v-3h9.985v3a1.021,1.021,0,0,0,1.033,1.016h7.611a1.021,1.021,0,0,0,1.033-1.016v-3h9.985v3a1.022,1.022,0,0,0,1.035,1.016h2.774v10.6H40.358a.993.993,0,0,0-1.035.98v7.957a1.05,1.05,0,0,0,1.035,1.049h7.612A1.046,1.046,0,0,0,49,29.524V21.567a.989.989,0,0,0-1.029-.98H45.191V9.985h2.779A1.017,1.017,0,0,0,49,8.969V1.012A1.015,1.015,0,0,0,47.971,0ZM7.618,28.514H2.059V22.646H7.618Zm0-20.588H2.059V2.058H7.618Zm19.662,0H21.721V2.058h5.559ZM46.941,28.514H41.382V22.646h5.559Zm0-20.588H41.382V2.058h5.559Zm0,0" transform="translate(0 0)" fill="#5b5b5b"/>
  </g>
</svg>
