<svg xmlns="http://www.w3.org/2000/svg" width="49.454" height="46.797" viewBox="0 0 49.454 46.797">
  <g id="pormotion" transform="translate(0 0)">
    <path id="Path_581" data-name="Path 581" d="M21.261,210.293l5.8,10.038-8.365,4.829a5.8,5.8,0,0,1-5.8-10.038Zm0,0" transform="translate(-9.033 -189.981)" fill="#fe5754"/>
    <path id="Path_582" data-name="Path 582" d="M266.807,52.78a1.932,1.932,0,0,1-1.626,2.9l-1.087.214-.024-.123L251.636,34.23l-.081-.064.7-.886a1.932,1.932,0,0,1,3.322.04c19.3,33.423-5.048-8.744,11.235,19.459Zm0,0" transform="translate(-227.258 -29.229)" fill="#fe5754"/>
    <path id="Path_583" data-name="Path 583" d="M110.335,343.417a2.9,2.9,0,0,1-5.019,2.9l-5.312-9.2,5.019-2.9,5.312,9.2Zm0,0" transform="translate(-90.345 -301.933)" fill="#fff"/>
    <path id="Path_584" data-name="Path 584" d="M337.448,108.934l1.932,3.346-2.38,3.6-3.864-6.692Zm0,0" transform="translate(-300.959 -98.412)" fill="#e9eef0"/>
    <path id="Path_585" data-name="Path 585" d="M151.189,72.713l.024.123L132.4,76.526l-5.8-10.038,12.069-15.375.081.064Zm0,0" transform="translate(-114.376 -46.176)" fill="#fff"/>
    <path id="Path_586" data-name="Path 586" d="M123.413,291.377a.966.966,0,1,0-1.319-.354A.966.966,0,0,0,123.413,291.377Zm0,0" transform="translate(-110.183 -261.605)" fill="#5b5b5b"/>
    <path id="Path_587" data-name="Path 587" d="M9.271,56.635l4.864,8.426A3.863,3.863,0,1,0,20.827,61.2l-2.9-5.02,2.509-1.449a.966.966,0,0,0,.354-1.319l-1.256-2.176,18.5-3.629a2.9,2.9,0,0,0,2.349-4.342l-3.21-5.56L39.227,34.6a.966.966,0,0,0,.031-1.015l-1.932-3.346a.968.968,0,0,0-.895-.481l-3.716.223L29.151,23.8a2.872,2.872,0,0,0-2.473-1.448h-.037a2.872,2.872,0,0,0-2.44,1.336L11.584,39.765,3.381,44.5a6.761,6.761,0,0,0,5.89,12.134Zm9.883,5.529A1.932,1.932,0,0,1,15.808,64.1l-4.829-8.366L14.325,53.8l4.83,8.366ZM16.963,54.5,16,52.831l1.673-.966.966,1.673ZM35.951,31.718l1.335,2.312-1.19,1.8-2.3-3.985ZM25.817,24.751a.966.966,0,0,1,1.661.019L38.713,44.229a.966.966,0,0,1-.813,1.448,3.547,3.547,0,0,0-.53.09L25.486,25.183c.249-.321.281-.352.331-.433ZM24.2,26.821,35.366,46.16,18.515,49.466l-5.124-8.875ZM2.579,52.771a4.826,4.826,0,0,1,1.768-6.6l7.528-4.347L16.7,50.193,9.176,54.539a4.835,4.835,0,0,1-6.6-1.768Zm0,0" transform="translate(0 -20.196)" fill="#5b5b5b"/>
    <path id="Path_588" data-name="Path 588" d="M48.8,310.056a.966.966,0,0,0-1.319-.354l-1.673.966a.967.967,0,0,1-1.319-.354.966.966,0,0,0-1.673.966,2.9,2.9,0,0,0,3.958,1.061l1.673-.966a.966.966,0,0,0,.354-1.319Zm0,0" transform="translate(-38.559 -279.671)" fill="#5b5b5b"/>
    <path id="Path_589" data-name="Path 589" d="M442.154,42.6l-5.382,3a.966.966,0,1,0,.939,1.688l5.382-3a.966.966,0,0,0-.939-1.688Zm0,0" transform="translate(-394.135 -38.377)" fill="#5b5b5b"/>
    <path id="Path_590" data-name="Path 590" d="M445.011,137.654l-3.732-1a.966.966,0,1,0-.5,1.866l3.732,1a.966.966,0,1,0,.5-1.866Zm0,0" transform="translate(-397.558 -123.425)" fill="#5b5b5b"/>
    <path id="Path_591" data-name="Path 591" d="M384.526.716l-1,3.732a.966.966,0,1,0,1.866.5l1-3.732a.966.966,0,1,0-1.866-.5Zm0,0" transform="translate(-346.451 0)" fill="#5b5b5b"/>
  </g>
</svg>
