<svg id="progress-report" xmlns="http://www.w3.org/2000/svg" width="49.233" height="44.743" viewBox="0 0 49.233 44.743">
  <path id="Path_547" data-name="Path 547" d="M87.754,253.964a3.047,3.047,0,0,0-.778,1.877v7.908h4.591v-12.5c0-.607-.348-.752-.778-.322Z" transform="translate(-75.208 -219.008)" fill="#5b5b5b"/>
  <path id="Path_548" data-name="Path 548" d="M236.783,198.569a3.054,3.054,0,0,0-.778,1.879v15.4H240.6v-20c0-.607-.348-.751-.778-.321Z" transform="translate(-204.072 -171.105)" fill="#5b5b5b"/>
  <path id="Path_549" data-name="Path 549" d="M286.442,150.956a3.043,3.043,0,0,0-.779,1.876v22.131h4.268V148.571c0-.607-.349-.752-.779-.322Z" transform="translate(-247.011 -130.222)" fill="#5b5b5b"/>
  <path id="Path_550" data-name="Path 550" d="M187.238,248.151l-.457.459a2.6,2.6,0,0,0-.456,1.558v8.676h4.591V245.577c0-.607-.349-.752-.779-.322Z" transform="translate(-161.113 -214.102)" fill="#5b5b5b"/>
  <path id="Path_551" data-name="Path 551" d="M137.429,249.42c-.43-.429-.779-.285-.779.322v12.7h4.591v-8.122a2.958,2.958,0,0,0-.738-1.834l-.738-.735Z" transform="translate(-118.161 -217.704)" fill="#5b5b5b"/>
  <path id="Path_552" data-name="Path 552" d="M35.586,302.724,34.1,304.208a2.771,2.771,0,0,0-.777,1.65v.871h5.124v-5.775c0-.607-.348-.751-.778-.321Z" transform="translate(-28.818 -261.987)" fill="#5b5b5b"/>
  <path id="Path_553" data-name="Path 553" d="M48.456,34.743c.429.43.778.285.778-.322V18.7a2.247,2.247,0,0,0-2.2-2.111H31.413c-.607,0-.752.349-.322.779l5.558,5.562-2.267,2.257L23.868,35.715l-5.561-5.56a1.1,1.1,0,0,0-1.555,0L1.288,45.63a4.4,4.4,0,0,0,0,6.223l.108.109a4.4,4.4,0,0,0,6.221,0l9.911-9.916L23.089,47.6a1.1,1.1,0,0,0,1.556,0L42.977,29.265Z" transform="translate(0 -16.594)" fill="#fe5754"/>
</svg>
