<svg id="settings" xmlns="http://www.w3.org/2000/svg" width="46.086" height="46.087" viewBox="0 0 46.086 46.087">
  <g id="Group_88" data-name="Group 88" transform="translate(0 15.554)">
    <g id="Group_87" data-name="Group 87">
      <path id="Path_554" data-name="Path 554" d="M29.6,190.438c-.485-.291-.982-.584-1.479-.871a12.878,12.878,0,0,0,0-3c.5-.288,1-.581,1.478-.87a1.943,1.943,0,0,0,.787-2.395h0l-1.06-2.558a1.943,1.943,0,0,0-2.25-1.137c-.546.136-1.1.281-1.661.43a12.882,12.882,0,0,0-2.121-2.12c.149-.556.294-1.115.43-1.662a1.943,1.943,0,0,0-1.137-2.25l-2.558-1.06a1.943,1.943,0,0,0-2.395.787c-.291.484-.583.981-.871,1.479a12.885,12.885,0,0,0-3,0c-.288-.5-.581-1-.87-1.479a1.943,1.943,0,0,0-2.395-.787l-2.558,1.06a1.943,1.943,0,0,0-1.137,2.25c.136.548.281,1.106.43,1.661a12.875,12.875,0,0,0-2.12,2.121c-.558-.15-1.116-.294-1.662-.43a1.943,1.943,0,0,0-2.25,1.137L.145,183.3A1.943,1.943,0,0,0,.932,185.7c.484.291.981.583,1.479.871a12.887,12.887,0,0,0,0,3c-.5.288-1,.58-1.479.871a1.943,1.943,0,0,0-.787,2.395L1.2,195.39a1.943,1.943,0,0,0,2.25,1.137c.546-.136,1.1-.281,1.661-.43a12.889,12.889,0,0,0,2.121,2.12c-.149.557-.294,1.116-.43,1.662a1.943,1.943,0,0,0,1.137,2.25l2.558,1.06a1.912,1.912,0,0,0,.732.145A1.943,1.943,0,0,0,12.9,202.4c.288-.48.581-.977.871-1.479a12.9,12.9,0,0,0,3,0c.286.5.579.993.87,1.479a1.943,1.943,0,0,0,2.395.787l2.558-1.06a1.943,1.943,0,0,0,1.137-2.25c-.135-.543-.28-1.1-.43-1.661a12.888,12.888,0,0,0,2.12-2.121c.556.149,1.115.294,1.662.43a1.943,1.943,0,0,0,2.25-1.137l1.06-2.558A1.943,1.943,0,0,0,29.6,190.438Zm-2.136,4.06c-.525-.132-1.061-.271-1.593-.414a1.927,1.927,0,0,0-2.027.676,10.816,10.816,0,0,1-1.887,1.888,1.926,1.926,0,0,0-.674,2.026c.144.536.283,1.071.414,1.593l-2.351.974c-.28-.467-.56-.943-.833-1.419a1.928,1.928,0,0,0-1.91-.956,10.827,10.827,0,0,1-2.669,0,1.926,1.926,0,0,0-1.911.955c-.277.481-.557.958-.834,1.42l-2.351-.974c.132-.525.271-1.06.414-1.593a1.927,1.927,0,0,0-.676-2.027,10.817,10.817,0,0,1-1.888-1.887,1.926,1.926,0,0,0-2.026-.675c-.533.144-1.068.283-1.593.414l-.974-2.351c.464-.278.941-.559,1.419-.833a1.927,1.927,0,0,0,.956-1.91,10.829,10.829,0,0,1,0-2.669,1.927,1.927,0,0,0-.956-1.911c-.477-.275-.954-.555-1.42-.834l.974-2.351c.524.131,1.059.27,1.593.414a1.927,1.927,0,0,0,2.027-.676,10.814,10.814,0,0,1,1.887-1.888,1.927,1.927,0,0,0,.675-2.026c-.143-.531-.282-1.067-.414-1.593l2.351-.974c.278.463.558.94.833,1.419a1.926,1.926,0,0,0,1.91.956,10.808,10.808,0,0,1,2.67,0,1.927,1.927,0,0,0,1.911-.956c.275-.477.555-.954.834-1.42l2.351.974c-.132.525-.271,1.061-.414,1.593a1.927,1.927,0,0,0,.676,2.027,10.819,10.819,0,0,1,1.888,1.887,1.926,1.926,0,0,0,2.026.675c.533-.143,1.068-.283,1.593-.414l.974,2.351c-.464.278-.941.558-1.419.834a1.927,1.927,0,0,0-.956,1.91,10.817,10.817,0,0,1,0,2.67,1.927,1.927,0,0,0,.956,1.911c.477.274.954.555,1.42.834Z" transform="translate(0 -172.801)" fill="#5b5b5b"/>
    </g>
  </g>
  <g id="Group_90" data-name="Group 90" transform="translate(8.236 23.79)">
    <g id="Group_89" data-name="Group 89">
      <path id="Path_555" data-name="Path 555" d="M105.02,268.633h0a7.039,7.039,0,1,0-3.8,9.186A7.038,7.038,0,0,0,105.02,268.633Zm-4.594,7.28a4.968,4.968,0,1,1,2.689-6.491A4.936,4.936,0,0,1,100.425,275.913Z" transform="translate(-91.494 -264.293)" fill="#fe5754"/>
    </g>
  </g>
  <g id="Group_92" data-name="Group 92" transform="translate(22.67)">
    <g id="Group_91" data-name="Group 91">
      <path id="Path_556" data-name="Path 556" d="M273.874,9.086c-.356-.053-.722-.105-1.09-.154a9.593,9.593,0,0,0-.739-1.784c.225-.295.448-.59.662-.88a1.644,1.644,0,0,0-.16-2.126l-1.423-1.423A1.643,1.643,0,0,0,269,2.558c-.291.215-.586.437-.88.662a9.6,9.6,0,0,0-1.784-.739c-.049-.368-.1-.734-.154-1.09A1.644,1.644,0,0,0,264.562,0h-2.012a1.644,1.644,0,0,0-1.617,1.39c-.053.356-.1.722-.154,1.09a9.6,9.6,0,0,0-1.784.739c-.294-.225-.589-.447-.88-.662a1.643,1.643,0,0,0-2.126.16l-1.423,1.423a1.644,1.644,0,0,0-.16,2.127c.214.29.437.585.662.88a9.609,9.609,0,0,0-.739,1.784c-.368.049-.734.1-1.09.154a1.644,1.644,0,0,0-1.391,1.617v2.012a1.644,1.644,0,0,0,1.39,1.617c.356.053.722.105,1.09.154a9.61,9.61,0,0,0,.739,1.784c-.225.295-.447.59-.662.88a1.644,1.644,0,0,0,.16,2.126l1.423,1.423a1.644,1.644,0,0,0,2.127.16c.291-.215.586-.437.88-.662a9.6,9.6,0,0,0,1.784.739c.049.368.1.734.154,1.09a1.644,1.644,0,0,0,1.617,1.391h2.012a1.643,1.643,0,0,0,1.617-1.391c.053-.356.1-.722.154-1.09a9.592,9.592,0,0,0,1.784-.739c.294.225.589.447.88.662a1.643,1.643,0,0,0,2.126-.16l1.423-1.423a1.644,1.644,0,0,0,.16-2.127c-.215-.29-.437-.586-.662-.88a9.606,9.606,0,0,0,.739-1.784c.368-.049.734-.1,1.09-.154a1.644,1.644,0,0,0,1.391-1.617V10.7A1.644,1.644,0,0,0,273.874,9.086Zm-.569,3.349c-.323.047-.653.092-.984.136a1.63,1.63,0,0,0-1.365,1.184,7.629,7.629,0,0,1-.721,1.74,1.63,1.63,0,0,0,.128,1.8c.2.264.4.53.6.792l-1.027,1.027c-.263-.2-.529-.4-.792-.6a1.631,1.631,0,0,0-1.8-.128,7.632,7.632,0,0,1-1.74.721,1.629,1.629,0,0,0-1.184,1.365c-.043.331-.089.661-.135.984H262.83c-.047-.323-.092-.653-.136-.984a1.63,1.63,0,0,0-1.184-1.365,7.628,7.628,0,0,1-1.74-.721,1.63,1.63,0,0,0-1.8.128c-.263.2-.529.4-.792.6l-1.026-1.027c.2-.263.4-.528.6-.792a1.631,1.631,0,0,0,.128-1.8,7.628,7.628,0,0,1-.721-1.74,1.63,1.63,0,0,0-1.365-1.184c-.331-.043-.661-.089-.984-.136V10.983c.323-.047.653-.092.984-.136a1.63,1.63,0,0,0,1.365-1.184,7.626,7.626,0,0,1,.721-1.74,1.631,1.631,0,0,0-.128-1.8c-.2-.264-.4-.53-.6-.792L257.175,4.3c.263.2.529.4.792.6a1.63,1.63,0,0,0,1.8.128,7.635,7.635,0,0,1,1.74-.721,1.629,1.629,0,0,0,1.184-1.365c.043-.331.089-.661.136-.984h1.452c.047.323.092.653.135.984A1.63,1.63,0,0,0,265.6,4.309a7.631,7.631,0,0,1,1.74.721,1.63,1.63,0,0,0,1.8-.128c.264-.2.529-.4.792-.6l1.027,1.027c-.2.262-.4.528-.6.792a1.631,1.631,0,0,0-.128,1.8,7.639,7.639,0,0,1,.721,1.74,1.63,1.63,0,0,0,1.365,1.184c.331.043.661.089.984.136Z" transform="translate(-251.847)" fill="#5b5b5b"/>
    </g>
  </g>
  <g id="Group_94" data-name="Group 94" transform="translate(30.201 7.532)">
    <g id="Group_93" data-name="Group 93">
      <path id="Path_557" data-name="Path 557" d="M339.7,83.675a4.177,4.177,0,1,0,4.177,4.177A4.181,4.181,0,0,0,339.7,83.675Zm0,6.5a2.32,2.32,0,1,1,2.32-2.32A2.323,2.323,0,0,1,339.7,90.172Z" transform="translate(-335.523 -83.675)" fill="#fe5754"/>
    </g>
  </g>
</svg>
