<svg xmlns="http://www.w3.org/2000/svg" width="80.41" height="50.994" viewBox="0 0 80.41 50.994">
  <g id="Clouds" transform="translate(-307.21 -40.932)">
    <g id="Clouds-2" data-name="Clouds">
      <path id="Path_597" data-name="Path 597" d="M363.42,77.14l7.67,4.43a9,9,0,0,1-.07-1V78.33c0-4,2.78-5.56,6.2-3.58a12.08,12.08,0,0,1,3.7,3.55c.56-5,4.46-6.82,9.2-4.09,5.12,3,9.27,10.15,9.27,16.07V93.6a8.65,8.65,0,0,1-.79,3.85l6.37,3.68a7.6,7.6,0,0,1,3.44,6c0,2.19-1.54,3.08-3.44,2l-41.55-24a7.6,7.6,0,0,1-3.44-6C360,76.93,361.52,76,363.42,77.14Z" transform="translate(-20.79 -32.01)" fill="#ebebeb"/>
      <path id="Path_598" data-name="Path 598" d="M330.6,99.48l5.79,3.34a6.612,6.612,0,0,1-.05-.76v-1.68c0-3,2.1-4.19,4.68-2.7a9,9,0,0,1,2.79,2.68c.42-3.75,3.36-5.15,6.94-3.09a15.48,15.48,0,0,1,7,12.13v2.51a6.56,6.56,0,0,1-.59,2.9l4.8,2.78a5.73,5.73,0,0,1,2.6,4.49c0,1.66-1.16,2.33-2.6,1.5L330.6,105.47A5.73,5.73,0,0,1,328,101C328,99.32,329.17,98.65,330.6,99.48Z" transform="translate(-20.79 -32.01)" fill="#ebebeb"/>
    </g>
  </g>
</svg>
