<svg xmlns="http://www.w3.org/2000/svg" viewBox="0 0 646.16 425.29"><defs><style>.cls-1{fill:#ffdc8d;opacity:0.7;}.cls-2,.cls-25{fill:#fff;}.cls-3{fill:#4b6590;}.cls-18,.cls-19,.cls-4{fill:#7a8db5;}.cls-5{fill:#88d2d0;}.cls-6{fill:#76b7b3;}.cls-23,.cls-7{fill:#c1eee6;}.cls-16,.cls-22,.cls-25,.cls-7{opacity:0.2;}.cls-10,.cls-16,.cls-8,.cls-9{fill:#2f3f5c;}.cls-19,.cls-8{opacity:0.1;}.cls-10{opacity:0.5;}.cls-11{fill:#d1634a;}.cls-12{fill:#ffc1b7;}.cls-13{fill:#ffa398;}.cls-14{fill:#de7356;}.cls-15{fill:#dd9b94;}.cls-17{fill:#cc5e44;}.cls-18,.cls-20{opacity:0.3;}.cls-20,.cls-21{fill:#bc4d33;}.cls-22{fill:#182333;}.cls-24{fill:#ffc330;}</style></defs><title>search</title><g id="BACKGROUND"><path class="cls-1" d="M385,91.82s40.47,31.59,110.23-2.75S658.53,58.85,685,144s31.4,218.67-96.28,222.54c-115.4,3.5-152.82,22.16-196.08,52.38S190.24,460.6,110.36,361.06c-63.95-79.69-79-164-15.84-249.45C173.2,5.17,286,17.64,385,91.82Z" transform="translate(-54.08 -33.95)"/></g><g id="OBJECTS"><rect class="cls-2" x="175.71" y="101.91" width="298.3" height="43.19" rx="7.2"/><path class="cls-3" d="M520.89,135.86H474.55v43.19h46.34a7.19,7.19,0,0,0,7.2-7.19v-28.8A7.2,7.2,0,0,0,520.89,135.86Z" transform="translate(-54.08 -33.95)"/><path class="cls-2" d="M493.63,140.46a15.75,15.75,0,1,0,19.81,10.18A15.75,15.75,0,0,0,493.63,140.46Zm17.33,11a13.14,13.14,0,1,1-16.54-8.49A13.14,13.14,0,0,1,511,151.43Z" transform="translate(-54.08 -33.95)"/><path class="cls-2" d="M520.06,171a1.49,1.49,0,0,1,.22,2.1h0a1.49,1.49,0,0,1-2.1.22l-8.65-7a1.49,1.49,0,0,1-.21-2.1h0a1.49,1.49,0,0,1,2.1-.21Z" transform="translate(-54.08 -33.95)"/><polygon class="cls-4" points="363.84 159.22 357.08 131.75 382.85 143.69 377.03 149.08 383.29 156.8 377.03 161.89 370.91 154.03 363.84 159.22"/><polygon class="cls-3" points="363.84 159.22 357.08 131.75 380.2 159.31 377.03 161.89 370.91 154.03 363.84 159.22"/><path class="cls-5" d="M339.7,345.88s-12.81-29.12,3-65c0,0,1,10.76-.73,45.31,0,0-1.15-15.06,14.62-40.69a278.88,278.88,0,0,1-12.51,52.83s5.6-22.61,15.87-30.34C359.94,308,358.88,332,339.7,345.88Z" transform="translate(-54.08 -33.95)"/><path class="cls-3" d="M307.66,258.63c10-1.35,21.17-2.16,24.57,9.66,1.5,5.19-.16,10.56-.51,15.8A18.19,18.19,0,0,0,335.47,296c4.9,6.7,14.75,6.27,20.45,12.22,7.18,7.51,5,20.81,3.19,29.92-.14.71.94,1,1.08.3,1.77-9.11,3.08-19.05-1.17-27.69-5.06-10.28-18.58-8.41-24.28-17.9-3.73-6.2-.89-13.54-.77-20.2a18.1,18.1,0,0,0-4.14-11.59c-5.18-6.25-15.57-4.46-22.47-3.52-.72.1-.41,1.18.3,1.08Z" transform="translate(-54.08 -33.95)"/><path class="cls-3" d="M309.24,257.75s.79,11.87-14.67,7.16C294.57,264.91,299.68,252.7,309.24,257.75Z" transform="translate(-54.08 -33.95)"/><path class="cls-3" d="M343.9,301.44s8.94,7.86-5.34,15.42C338.56,316.86,333.56,304.61,343.9,301.44Z" transform="translate(-54.08 -33.95)"/><path class="cls-3" d="M335.36,295.87s.79,11.87-14.67,7.15C320.69,303,325.8,290.82,335.36,295.87Z" transform="translate(-54.08 -33.95)"/><path class="cls-3" d="M338.87,297.8s-4.7-10.93,11.44-11.64C350.31,286.16,349.57,299.37,338.87,297.8Z" transform="translate(-54.08 -33.95)"/><path class="cls-3" d="M332.17,286.7s-6,10.28-16.16-2.28C316,284.42,327.08,277.16,332.17,286.7Z" transform="translate(-54.08 -33.95)"/><path class="cls-3" d="M333.31,278.72s5.45-10.57,16.25,1.45C349.56,280.17,338.88,288,333.31,278.72Z" transform="translate(-54.08 -33.95)"/><path class="cls-3" d="M332.91,267.34s2.09-11.71,16-3.42C348.87,263.92,341,274.54,332.91,267.34Z" transform="translate(-54.08 -33.95)"/><path class="cls-3" d="M332.89,272.11s-3,11.51-16.17,2.17C316.72,274.28,325.41,264.3,332.89,272.11Z" transform="translate(-54.08 -33.95)"/><path class="cls-3" d="M328.77,260.29S323,249.87,339,247.6C339,247.6,339.57,260.82,328.77,260.29Z" transform="translate(-54.08 -33.95)"/><path class="cls-3" d="M321.44,258.12s7.57,9.19-7.74,14.37C313.7,272.49,310.73,259.59,321.44,258.12Z" transform="translate(-54.08 -33.95)"/><path class="cls-3" d="M317.89,257s-11.9-.13-6-15.18C311.89,241.79,323.66,247.83,317.89,257Z" transform="translate(-54.08 -33.95)"/><path class="cls-5" d="M352.36,436.06s-42.8-37-92.68-36.4c0,0,12.11,6.53,53.42,21.79,0,0-17.07-8.88-55-3.22A354.23,354.23,0,0,0,326.25,430S297,425.25,282.8,433.4C282.8,433.4,326.5,451.56,352.36,436.06Z" transform="translate(-54.08 -33.95)"/><path class="cls-5" d="M339.53,348.3s3.46-31.63-22.4-61.08c0,0,2.3,10.56,14.33,43,0,0-3.43-14.72-26.18-34.41a278.68,278.68,0,0,0,27.82,46.62S321,322.55,308.84,318.26C308.84,318.26,317.06,340.81,339.53,348.3Z" transform="translate(-54.08 -33.95)"/><path class="cls-5" d="M442.06,264.72s21.82-23.16,18.92-62.24c0,0-4.53,9.81-14.47,43,0,0,6.13-13.81-.16-43.24a278.5,278.5,0,0,0-5.88,54s2.28-23.18-4.81-33.9C435.66,222.26,428.64,245.21,442.06,264.72Z" transform="translate(-54.08 -33.95)"/><path class="cls-5" d="M486.19,314.67s-2.9-31.23,21.32-61.46c0,0-2.23,10.56-13.67,43.2,0,0,3.31-14.72,24.55-35.17a300.48,300.48,0,0,1-26.19,47.35s11.43-20.2,22.69-24.94C514.89,283.65,507.06,306.34,486.19,314.67Z" transform="translate(-54.08 -33.95)"/><path class="cls-5" d="M454.14,435.09s7.08-40.63,51.75-64.33c0,0-6.88,11.89-34.54,46,0,0,21-24.48,58-37.68,0,0-32.6,31-64.64,51.92,0,0,23.2-18.57,40.64-18C505.36,413,486.33,436.78,454.14,435.09Z" transform="translate(-54.08 -33.95)"/><path class="cls-3" d="M245.41,376.54c4.33,5.7,9.21,11.91,16.15,14.51,8.68,3.26,18.45-.19,26.76,3.49,7.15,3.17,11.33,11,17.87,15.16,9.41,6,20.76,3.14,30.39-.54,1-.4.59-2.09-.46-1.69-11,4.21-22.67,6.32-32.46-1.77-5-4.13-8.58-9.64-14.46-12.67-6.72-3.48-15-1.09-22.23-2.27-9-1.46-14.84-8.25-20.05-15.11-.67-.88-2.19,0-1.51.89Z" transform="translate(-54.08 -33.95)"/><path class="cls-3" d="M249.4,379.83s-12.43,2.43-9.53-14.52C239.87,365.31,253.45,369.07,249.4,379.83Z" transform="translate(-54.08 -33.95)"/><path class="cls-3" d="M296.71,398.77s-11.6-5.08.44-17.36C297.15,381.41,306.17,392.23,296.71,398.77Z" transform="translate(-54.08 -33.95)"/><path class="cls-3" d="M309.75,411s9.72,8.12-5.28,16.54C304.47,427.55,298.84,414.64,309.75,411Z" transform="translate(-54.08 -33.95)"/><path class="cls-3" d="M301,405.31s2.66,12.38-14.34,9.79C286.61,415.1,290.11,401.46,301,405.31Z" transform="translate(-54.08 -33.95)"/><path class="cls-3" d="M287.91,393.93s5.45,11.43-11.69,12.84C276.22,406.77,276.48,392.69,287.91,393.93Z" transform="translate(-54.08 -33.95)"/><path class="cls-3" d="M276.22,391.64s-10.73-4-.45-15.71C275.77,375.93,284.45,385.27,276.22,391.64Z" transform="translate(-54.08 -33.95)"/><path class="cls-3" d="M265.41,392.27s10.83,6.56-2.71,17.16C262.7,409.43,255.17,397.52,265.41,392.27Z" transform="translate(-54.08 -33.95)"/><path class="cls-3" d="M252.56,384.69s-.46,12.65-16.31,6C236.25,390.66,243,378.3,252.56,384.69Z" transform="translate(-54.08 -33.95)"/><path class="cls-3" d="M260.39,388.79s-9.88-7.91,4.93-16.65C265.32,372.14,271.23,384.93,260.39,388.79Z" transform="translate(-54.08 -33.95)"/><path class="cls-6" d="M361.86,430.4S373,379.47,347,375.12c-31.54-5.25-9.83-34.06-35.4-38.51s-10.13-35.85-29-44.75-17.79,18.35-5.56,34.47-17.23,27.8,16.68,48.93S282,412,339.23,431.41,361.86,430.4,361.86,430.4Z" transform="translate(-54.08 -33.95)"/><path class="cls-7" d="M363.3,438.71,361.24,436c-52.1-67.6-88.09-145.11-88.2-145.33-8.43,3.47-5.69,23,3.92,35.67,12.23,16.13-17.23,27.8,16.68,48.93S282,412,339.23,431.41C350.49,435.24,358.19,437.52,363.3,438.71Z" transform="translate(-54.08 -33.95)"/><path class="cls-6" d="M366.34,433.16s42.53-30.17,26.15-50.93c-19.8-25.1,15.63-31.82-.3-52.31s16.62-33.34,8.62-52.64-25.51,1.61-27.3,21.77-31.45,9-20.56,47.43-33.32,19.3-4,72.21S366.34,433.16,366.34,433.16Z" transform="translate(-54.08 -33.95)"/><path class="cls-7" d="M361.82,440.29c.11-1.11.21-2.24.3-3.41C369,351.81,394.53,270.25,394.6,270c-8.58-3.11-19.68,13.19-21.09,29-1.79,20.16-31.45,9-20.56,47.43s-33.32,19.3-4,72.21C354.68,429.1,358.84,436,361.82,440.29Z" transform="translate(-54.08 -33.95)"/><path class="cls-6" d="M418,355.52S407.41,307.09,432.21,303c30-5,9.35-32.39,33.67-36.62s9.62-34.09,27.6-42.55,16.92,17.44,5.29,32.77,16.38,26.44-15.86,46.53S494,338,439.56,356.48,418,355.52,418,355.52Z" transform="translate(-54.08 -33.95)"/><path class="cls-7" d="M416.67,363.42l2-2.59c49.54-64.28,83.76-138,83.86-138.19,8,3.3,5.41,21.88-3.72,33.92-11.63,15.34,16.38,26.44-15.86,46.53S494,338,439.56,356.48C428.85,360.12,421.53,362.29,416.67,363.42Z" transform="translate(-54.08 -33.95)"/><ellipse class="cls-8" cx="438.74" cy="414.13" rx="180.82" ry="9.71"/><path class="cls-9" d="M485.19,439.27s-52.16,18.26,8.18,7.45L494.89,436Z" transform="translate(-54.08 -33.95)"/><path class="cls-9" d="M624.74,435.5s50,36.4,7.85-8.12L622.76,432Z" transform="translate(-54.08 -33.95)"/><path class="cls-3" d="M583.33,304.56s18.25,25.34,9.31,53.44-28,48.68-31.87,57.57a49.14,49.14,0,0,1,28.29-1.73c16.1,3.63,37.84,14.67,37.84,14.67l.7,11.88s-88.17,8.3-99.73,3.45,8.55-87.52,8.55-87.52S508,358.18,492,353.2c0,0,8.21,11.5,9.76,34.95s-6.92,51.11-6.92,51.11l-13.06.06s-22.23-84.84-17.5-107.66S535,313.52,535,313.52l7.5-15.09Z" transform="translate(-54.08 -33.95)"/><path class="cls-10" d="M553.82,311.4c9.7,1,22.79,2.24,32.06-2.64-1-1.61-3-4.55-3-4.55l-40.4-5.78-5,10.13A116.57,116.57,0,0,0,553.82,311.4Z" transform="translate(-54.08 -33.95)"/><path class="cls-10" d="M536.42,356.32s0,.28-.13.79a2.72,2.72,0,0,1,.68-.58c-9-11.9-11.22-28.92-14.44-43.4-19.37-.09-54.87,2-58.3,18.53-4.73,22.82,17.5,107.66,17.5,107.66l13.06-.06s8.48-27.66,6.92-51.11S492,353.2,492,353.2C508,358.18,536.42,356.32,536.42,356.32Z" transform="translate(-54.08 -33.95)"/><path class="cls-11" d="M583.85,179.45s-21.15-8.66-29.55,7.5-2.62,26.79-19.16,37.06-16.34,32.11.19,43,46.54-5.48,46.54-5.48Z" transform="translate(-54.08 -33.95)"/><path class="cls-11" d="M584.9,180.88s-.46-.21-1.34-.54a38.28,38.28,0,0,0-3.87-1.23,34.94,34.94,0,0,0-6.22-1.05,23.67,23.67,0,0,0-8.05.74,16.34,16.34,0,0,0-8,5,21.12,21.12,0,0,0-2.9,4.33,47.92,47.92,0,0,0-2.39,4.94,102.12,102.12,0,0,0-3.59,11,32.57,32.57,0,0,1-5,11,28.85,28.85,0,0,1-9.35,7.63,28.51,28.51,0,0,0-8.74,7.22,22.82,22.82,0,0,0-4.54,9.54,25.1,25.1,0,0,0-.15,9.52c.18.72.36,1.43.54,2.12.09.34.17.69.28,1l.37,1,.73,1.85c.3.57.6,1.12.89,1.65a12.49,12.49,0,0,0,.88,1.53l.95,1.34c.31.42.58.85.89,1.22s.64.69.93,1a20.73,20.73,0,0,0,1.62,1.69l1.3,1.13,1.09.94-1.11-.91-1.35-1.09a23.23,23.23,0,0,1-1.66-1.65l-1-1c-.33-.36-.61-.79-.94-1.21l-1-1.32a12.55,12.55,0,0,1-.93-1.52c-.31-.53-.63-1.08-.95-1.65l-.79-1.85-.41-1c-.12-.34-.2-.69-.3-1-.19-.7-.4-1.41-.59-2.15a25.85,25.85,0,0,1,0-9.77,23.05,23.05,0,0,1,4.57-9.91,17.77,17.77,0,0,1,1.9-2.18c.34-.34.67-.71,1-1l1.15-.93a35.5,35.5,0,0,1,4.9-3.33,27.87,27.87,0,0,0,9-7.43,31.61,31.61,0,0,0,4.94-10.65,103.34,103.34,0,0,1,3.68-11,43.86,43.86,0,0,1,2.47-5,21.14,21.14,0,0,1,3.06-4.41,17,17,0,0,1,8.34-5.06,22.93,22.93,0,0,1,8.22-.56,35,35,0,0,1,6.23,1.23,39,39,0,0,1,3.85,1.35C584.45,180.66,584.9,180.88,584.9,180.88Z" transform="translate(-54.08 -33.95)"/><path class="cls-12" d="M567.5,232.54s.3,12.3-1.5,13.5-15.9-7.5-24.9.3,15,38.7,21.9,39,33.3-7.8,33-16.5-14.7-17.7-13.5-35.7S567.5,232.54,567.5,232.54Z" transform="translate(-54.08 -33.95)"/><path class="cls-13" d="M567.17,242.12a36.15,36.15,0,0,0,15.39-3.18,37.21,37.21,0,0,1-.06-5.8c1.2-18-15-.6-15-.6A85.85,85.85,0,0,1,567.17,242.12Z" transform="translate(-54.08 -33.95)"/><path class="cls-12" d="M579.42,185.67s-14.85-1.11-21,14.49c-6.37,16.19-6.07,33.63,9.53,36.29s30.22-11.24,31.12-23.06S597.72,187.15,579.42,185.67Z" transform="translate(-54.08 -33.95)"/><path class="cls-14" d="M574.32,186.8S571.85,198.05,588.5,208c0,0-20.7,37.57-3.15,49.27s-1.14,28.26,6.74,37,34,3.92,44.33-19.26c13.94-31.27-31.73-36.9-23.63-63.44,0,0,6.53-19.35-7.87-30.15C591,170.94,576.57,173.75,574.32,186.8Z" transform="translate(-54.08 -33.95)"/><path class="cls-14" d="M639,275.4s.18-.54.5-1.54a31.77,31.77,0,0,0,1.12-4.42,24.77,24.77,0,0,0,.2-7,22,22,0,0,0-3.08-8.44,43.77,43.77,0,0,0-6.87-8.25c-2.75-2.69-5.87-5.32-8.94-8.28a54.89,54.89,0,0,1-4.49-4.74,26.89,26.89,0,0,1-3.77-5.65,19.12,19.12,0,0,1-2-6.7,13,13,0,0,1-.1-1.77,11.63,11.63,0,0,1,0-1.77l.17-1.76.37-1.72a36,36,0,0,0,1.14-13,24.18,24.18,0,0,0-4.24-11.69,22,22,0,0,0-4.13-4.32c-.39-.29-.79-.63-1.16-.87l-1.25-.83-1.24-.81-1.24-.68a27.86,27.86,0,0,0-10-3.37,16.15,16.15,0,0,0-8.77,1.27,12.38,12.38,0,0,0-5.11,4.58l-.68,1.2a11.42,11.42,0,0,0-.48,1.12l-.39,1c-.1.3-.15.59-.22.85-.24,1-.37,1.57-.37,1.57s.09-.55.27-1.6c.05-.26.08-.55.17-.87l.33-1a11.8,11.8,0,0,1,.41-1.17l.64-1.26a12.91,12.91,0,0,1,5.11-5,16.46,16.46,0,0,1,9.19-1.72,27.91,27.91,0,0,1,10.63,3.21l1.34.69,1.26.79,1.27.79c.48.31.86.62,1.3.93a23,23,0,0,1,4.52,4.57,25.37,25.37,0,0,1,4.72,12.48,37.7,37.7,0,0,1-1.12,13.66l-.35,1.58-.16,1.6a9.63,9.63,0,0,0,0,1.61,10.52,10.52,0,0,0,.08,1.59,17.11,17.11,0,0,0,1.78,6.09,26.7,26.7,0,0,0,3.48,5.33,54.45,54.45,0,0,0,4.29,4.67c3,2.94,6,5.68,8.78,8.47a42.46,42.46,0,0,1,6.81,8.71,21.89,21.89,0,0,1,2.84,8.91,25.48,25.48,0,0,1-.54,7.16,29.14,29.14,0,0,1-1.39,4.38Z" transform="translate(-54.08 -33.95)"/><path class="cls-12" d="M592.77,211.55l-4.27,11.24s4.8,4.13,9-3.14C601.77,212.22,597.27,208.17,592.77,211.55Z" transform="translate(-54.08 -33.95)"/><path class="cls-2" d="M593.9,223.47a2,2,0,1,1-2-2A2,2,0,0,1,593.9,223.47Z" transform="translate(-54.08 -33.95)"/><path class="cls-15" d="M569.9,205.25a38.45,38.45,0,0,1-3,5c-.27.41-.56.79-.85,1.19s-.57.78-.88,1.16c-.59.78-1.21,1.52-1.84,2.27l-.15-.83a34,34,0,0,1,3.6,2.89,34,34,0,0,1-4.2-1.92l-.53-.28.38-.55c.54-.8,1.1-1.6,1.68-2.38.28-.4.58-.78.89-1.16s.59-.77.91-1.14A36.77,36.77,0,0,1,569.9,205.25Z" transform="translate(-54.08 -33.95)"/><path class="cls-9" d="M560,201.5s-.07.25-.17.69a13.59,13.59,0,0,0-.32,1.81,11.13,11.13,0,0,0,0,1.17,4.15,4.15,0,0,0,.26,1.17,2.36,2.36,0,0,0,.67.95,3.13,3.13,0,0,0,.5.34c.19.09.4.16.6.24,0,0,.1,0,0,0l.09,0,.19.05.37.09a5.11,5.11,0,0,0,.63.06c.2,0,.42,0,.63,0L564,208a6,6,0,0,0,1.12-.52,6.67,6.67,0,0,0,.91-.71,10.92,10.92,0,0,0,1.22-1.35c.28-.36.42-.58.42-.58a3.76,3.76,0,0,1-.18.7,6,6,0,0,1-.31.78,5.34,5.34,0,0,1-.56.95,5.18,5.18,0,0,1-2.2,1.84,7,7,0,0,1-.81.26,6.1,6.1,0,0,1-.87.09,6.28,6.28,0,0,1-.9-.08l-.37-.07-.19,0-.1,0a.67.67,0,0,1-.15-.06,6,6,0,0,1-.82-.36,5,5,0,0,1-.74-.54,3,3,0,0,1-.57-.72l-.22-.4-.13-.41a4.3,4.3,0,0,1-.13-1.57,6.7,6.7,0,0,1,.28-1.31,7.84,7.84,0,0,1,.82-1.75A6,6,0,0,1,560,201.5Z" transform="translate(-54.08 -33.95)"/><path class="cls-9" d="M575.27,207.8s-.08.25-.18.69a15.76,15.76,0,0,0-.31,1.81,11.13,11.13,0,0,0,0,1.17,4.15,4.15,0,0,0,.26,1.17,2.33,2.33,0,0,0,.66,1,4.39,4.39,0,0,0,.5.34c.19.09.41.16.61.24,0,0,.1,0,0,0l.1,0,.19,0,.37.09a5.11,5.11,0,0,0,.63.06c.2,0,.42,0,.63,0l.61-.13a5.16,5.16,0,0,0,1.11-.53,6,6,0,0,0,.92-.7,10.92,10.92,0,0,0,1.22-1.35c.28-.36.42-.58.42-.58a3.76,3.76,0,0,1-.18.7,5,5,0,0,1-.32.78,5.34,5.34,0,0,1-.55.95,5.16,5.16,0,0,1-2.21,1.84,6.77,6.77,0,0,1-.8.25,5,5,0,0,1-.87.1,6.28,6.28,0,0,1-.9-.08l-.38-.08-.18,0-.1,0a.67.67,0,0,1-.15-.06,6,6,0,0,1-.82-.36,5,5,0,0,1-.74-.54,2.79,2.79,0,0,1-.57-.72l-.22-.4-.13-.42a4.27,4.27,0,0,1-.13-1.57,5.52,5.52,0,0,1,.28-1.3,7,7,0,0,1,.82-1.75A6,6,0,0,1,575.27,207.8Z" transform="translate(-54.08 -33.95)"/><path class="cls-15" d="M561.8,222a18,18,0,0,0,1.7.68c.5.18,1.09.36,1.72.52a10,10,0,0,0,1,.21c.33.08.67.11,1,.17s.69.06,1,.11l1,.05h1c.31,0,.59,0,.86,0,.55,0,1,0,1.33-.06h.52s-.16.11-.45.27a6.63,6.63,0,0,1-1.25.56,6.52,6.52,0,0,1-.88.27c-.33.06-.67.14-1,.18s-.73.07-1.11.07A11.55,11.55,0,0,1,567,225a8.7,8.7,0,0,1-1.13-.23,6.82,6.82,0,0,1-1-.36,5.85,5.85,0,0,1-.94-.45,7,7,0,0,1-.78-.51A5.14,5.14,0,0,1,561.8,222Z" transform="translate(-54.08 -33.95)"/><path class="cls-11" d="M576.05,202a2.61,2.61,0,0,1,.57-.33,6.11,6.11,0,0,1,1.66-.5,7.76,7.76,0,0,1,2.45,0,7.07,7.07,0,0,1,1.36.37,6.92,6.92,0,0,1,1.33.61,8.33,8.33,0,0,1,1.2.84,10.36,10.36,0,0,1,1,1,11.55,11.55,0,0,1,.74,1.08,8,8,0,0,1,.49,1,6.23,6.23,0,0,1,.41,1.67,6,6,0,0,1,0,.65s-.21-.14-.53-.4c-.15-.13-.34-.28-.53-.46s-.45-.36-.69-.56a8.43,8.43,0,0,0-.77-.64l-.84-.66c-.31-.2-.6-.43-.91-.64s-.62-.43-1-.58a17.13,17.13,0,0,0-2-1c-.67-.29-1.32-.56-1.92-.77s-1.11-.39-1.49-.52Z" transform="translate(-54.08 -33.95)"/><path class="cls-11" d="M561.17,195.69a2.37,2.37,0,0,1,.44-.4,4.32,4.32,0,0,1,1.38-.67,5.26,5.26,0,0,1,2.21-.16,6.29,6.29,0,0,1,2.42.83,7.21,7.21,0,0,1,1,.76,5.9,5.9,0,0,1,.84.9,9.55,9.55,0,0,1,.63.93,9.89,9.89,0,0,1,.4.92,3.36,3.36,0,0,1,.24.81c0,.24.08.46.1.64a3.51,3.51,0,0,1,0,.58l-.5-.3c-.31-.19-.66-.51-1.14-.81-.23-.16-.46-.34-.69-.53s-.51-.34-.76-.54-.53-.34-.77-.54-.54-.32-.8-.5l-.81-.45c-.27-.12-.54-.28-.81-.39s-.55-.22-.81-.33-.53-.2-.78-.27c-.51-.17-1-.27-1.3-.36Z" transform="translate(-54.08 -33.95)"/><path class="cls-12" d="M528.65,263.29l-13.95,15.3-51.29-18.9-1.8,11.25s49.5,27,54.44,27,28.8-25.65,28.8-25.65Z" transform="translate(-54.08 -33.95)"/><path class="cls-13" d="M485.91,268l-22.5-8.29-1.8,11.25s19,10.36,34.62,18.24C493,282,489.7,274.87,485.91,268Z" transform="translate(-54.08 -33.95)"/><path class="cls-13" d="M541,276.4c2.37-2.46,3.9-4.11,3.9-4.11l-16.2-9-3.29,3.61C530.56,270.07,535.39,273.88,541,276.4Z" transform="translate(-54.08 -33.95)"/><path class="cls-13" d="M470,263.86s-.2-22.7-3.06-3.43S470,263.86,470,263.86Z" transform="translate(-54.08 -33.95)"/><path class="cls-5" d="M537,271.86l-11.74-8.49s12.64-19.32,22.72-20C548,243.34,537.92,263.37,537,271.86Z" transform="translate(-54.08 -33.95)"/><path class="cls-5" d="M548,243.34s-3.9,14.4,13.5,21.3,24.9-9.9,30.6-.3-8.1,41.1-8.1,41.1-24,1.8-42-6.6c0,0-.9-6.9-1.2-13.2,0,0-17.1-7.95,0-28.2l.3-11.1A8.48,8.48,0,0,1,548,243.34Z" transform="translate(-54.08 -33.95)"/><path class="cls-16" d="M576.31,292.93c-8.25-1-16.54-2.23-24.69-3.92a47.62,47.62,0,0,1-10.81-3.26c.3,6.27,1.19,13.09,1.19,13.09,18,8.4,42,6.6,42,6.6s2.13-4.88,4.37-11.38Q582.33,293.67,576.31,292.93Z" transform="translate(-54.08 -33.95)"/><polygon class="cls-17" points="305.5 406.13 281.06 412.59 268.61 299.6 313.8 299.6 316.11 307.9 371.45 307.9 376.98 402.44 305.5 406.13"/><polygon class="cls-2" points="285.21 408.44 282.44 312.06 406.96 311.59 381.13 405.67 285.21 408.44"/><polygon class="cls-18" points="285.21 408.44 282.44 312.06 406.96 311.59 381.13 405.67 285.21 408.44"/><polygon class="cls-2" points="293.97 406.13 291.21 314.82 415.72 314.36 389.89 408.44 293.97 406.13"/><polygon class="cls-19" points="293.97 406.13 291.21 314.82 415.72 314.36 389.89 408.44 293.97 406.13"/><polygon class="cls-2" points="337.04 357.7 334.28 266.4 458.79 265.94 454.64 360.47 337.04 357.7"/><polygon class="cls-19" points="335.69 319.3 337.04 357.7 454.64 360.47 457.3 299.82 335.69 319.3"/><polygon class="cls-2" points="293.47 291.3 290.7 199.99 415.21 199.53 411.06 294.07 293.47 291.3"/><polygon class="cls-19" points="292.95 274.32 293.47 291.3 411.06 294.07 415.07 202.72 292.95 274.32"/><polygon class="cls-14" points="281.06 412.59 403.73 412.59 440.16 313.44 399.58 313.44 395.89 320.36 312.42 320.36 281.06 412.59"/><path class="cls-12" d="M565.34,278.94,542,304.32s-30.48,3.32-37.38,4.11l-1.57.19c-7.91-6.14-4.57-1.66-2.76.56-22.59,5.14-3.45,3-3.45,3-20.3,7.17,1.29,2,1.29,2-15.82,11.64,1.49,1.79,1.49,1.79-11.75,11.58,2.39.9,2.39.9s41.18,4.18,49.54.59,25.67-22.08,25.67-22.08C570.38,291.19,565.34,278.94,565.34,278.94Z" transform="translate(-54.08 -33.95)"/><path class="cls-13" d="M574.88,297.84c1.47-1.52,2.37-2.47,2.37-2.47-6.87-4.18-11.91-16.43-11.91-16.43l-6.71,7.3C564,290.21,569.36,294.12,574.88,297.84Z" transform="translate(-54.08 -33.95)"/><path class="cls-5" d="M559.59,282.69l18.23,13.19a106.38,106.38,0,0,0,10.48-12.82c4.33-6.5-18.06-13.55-18.06-13.55Z" transform="translate(-54.08 -33.95)"/><ellipse class="cls-8" cx="145.89" cy="415.58" rx="71.76" ry="9.71"/><path class="cls-14" d="M168.05,128.75,165.28,149l-14.18,1.31s16.46,12.22,30.64,14.34S202,156.3,202,156.3l-16.8-3.88L187.76,133Z" transform="translate(-54.08 -33.95)"/><path class="cls-20" d="M168.05,128.75,165.28,149l-14.18,1.31s16.46,12.22,30.64,14.34S202,156.3,202,156.3l-16.8-3.88L187.76,133Z" transform="translate(-54.08 -33.95)"/><path class="cls-14" d="M164.44,105.26s-3.28-7.49-8.43-.47,3.74,16.53,8.11,18.72S164.44,105.26,164.44,105.26Z" transform="translate(-54.08 -33.95)"/><path class="cls-14" d="M215,98.25S211.8,137.93,199.54,145s-37.44,1-35.81-29.36C165.66,79.54,184.37,76,191.79,76S216,85.67,215,98.25Z" transform="translate(-54.08 -33.95)"/><path class="cls-9" d="M186.59,87.31s1.4,13,18.41,18.26l-5-6.24s8.9,7,16.54,9.51l-1.25-6.08,2.81,4.06A26.12,26.12,0,0,0,218,95.74l4.52,8.58S225,85,205.15,76.24,178,78.58,178,78.58l4.21-.47s-9.36-8.74-17.16,2.34c-4.54,6.45-5.3,14.88-4.06,21.22,3.12,2.18,3.44,8.27,3.44,8.27l-.32,9,4.37.94,1.25-16.69s9.67-5.78,9.36-16.07c0,0,.47,11.85,18.72,18.72Z" transform="translate(-54.08 -33.95)"/><path class="cls-9" d="M177,115.25s0-.32,0-.89a13.59,13.59,0,0,1,.44-2.33,9.79,9.79,0,0,1,.53-1.51,7.72,7.72,0,0,1,.91-1.61,7.9,7.9,0,0,1,.68-.76,3.92,3.92,0,0,1,.9-.63l.53-.24a3.61,3.61,0,0,1,.57-.12,3.29,3.29,0,0,1,1.17,0l.14,0h0l.09,0h0l.06,0,.23.08.45.15a4.92,4.92,0,0,1,1,.67l.4.38c.12.14.21.3.32.44a5.31,5.31,0,0,1,.48.91,7.5,7.5,0,0,1,.49,1.79,10.27,10.27,0,0,1,.09,1.62,12.51,12.51,0,0,1-.26,2.35,7.7,7.7,0,0,1-.23.87s0-.33-.05-.89-.11-1.35-.26-2.28c-.08-.46-.19-1-.32-1.45a8.5,8.5,0,0,0-.58-1.49,3.85,3.85,0,0,0-1-1.22,4.46,4.46,0,0,0-.57-.39l-.45-.14-.23-.07-.06,0h0l.07,0h-.12a2,2,0,0,0-.73,0c-.12,0-.25,0-.36.06l-.34.15a4.15,4.15,0,0,0-.66.4,7.5,7.5,0,0,0-.57.56A8.49,8.49,0,0,0,179,111a14.35,14.35,0,0,0-.71,1.32c-.41.84-.71,1.58-.92,2.1Z" transform="translate(-54.08 -33.95)"/><path class="cls-9" d="M198.71,119.78s0-.33,0-.9a12.57,12.57,0,0,1,.43-2.32,9,9,0,0,1,.54-1.52,7.24,7.24,0,0,1,.91-1.6,7.85,7.85,0,0,1,.67-.77,4.4,4.4,0,0,1,.9-.63l.53-.23a3.63,3.63,0,0,1,.57-.13,3.83,3.83,0,0,1,1.17,0l.15,0h0l.09,0h0l0,0,.23.08.45.16a4.37,4.37,0,0,1,1,.66l.4.39a3.47,3.47,0,0,1,.31.44,4.4,4.4,0,0,1,.49.9,7.09,7.09,0,0,1,.48,1.8,11.49,11.49,0,0,1,.1,1.61,11.72,11.72,0,0,1-.27,2.36c-.12.55-.22.86-.22.86s0-.32-.06-.88-.11-1.36-.26-2.28c-.08-.46-.19-1-.31-1.46a8.91,8.91,0,0,0-.58-1.48,3.81,3.81,0,0,0-1-1.23c-.18-.19-.38-.23-.56-.38l-.46-.15-.23-.07,0,0h0l.06,0h-.11a2.31,2.31,0,0,0-.74,0,2.29,2.29,0,0,0-.36.07l-.34.14a6.31,6.31,0,0,0-.65.4,7.8,7.8,0,0,0-.58.57,9.74,9.74,0,0,0-.94,1.3c-.27.45-.5.9-.71,1.32-.4.85-.71,1.59-.91,2.11Z" transform="translate(-54.08 -33.95)"/><path class="cls-21" d="M197.66,110.72a46.92,46.92,0,0,1,.91,4.64c.1.77.23,1.55.31,2.33s.18,1.55.24,2.33c.14,1.56.23,3.12.3,4.68s.09,3.13.05,4.7v.5l-.38.07a35.85,35.85,0,0,1-3.76.56,35.74,35.74,0,0,1,3.43-1.63l-.4.57c-.24-1.55-.42-3.1-.57-4.66s-.25-3.12-.32-4.68c-.05-.78-.05-1.56-.07-2.34s0-1.57,0-2.35C197.42,113.87,197.47,112.3,197.66,110.72Z" transform="translate(-54.08 -33.95)"/><path class="cls-2" d="M178,129.44l22.62,4.68S188.15,140.82,178,129.44Z" transform="translate(-54.08 -33.95)"/><path class="cls-9" d="M175.14,104.44a4,4,0,0,1,.49-.61,9.36,9.36,0,0,1,1.54-1.36,10.26,10.26,0,0,1,2.61-1.33,9,9,0,0,1,1.63-.43,11.42,11.42,0,0,1,1.77-.15,8.29,8.29,0,0,1,1.8.22,6.23,6.23,0,0,1,1.67.58,7.51,7.51,0,0,1,.75.38l.64.48.59.47c.16.18.31.35.45.53a5.93,5.93,0,0,1,.7,1c.17.31.29.6.39.83a7.13,7.13,0,0,1,.28.73s-.28-.13-.7-.37c-.21-.12-.46-.25-.72-.43s-.63-.27-.95-.44l-.52-.26-.57-.19-.58-.22-.62-.14c-.21,0-.41-.12-.63-.15s-.44,0-.66-.08c-.43-.09-.9,0-1.35-.1s-.93,0-1.4,0-.93.06-1.38.14-.9.13-1.33.19-.84.16-1.23.21Z" transform="translate(-54.08 -33.95)"/><path class="cls-9" d="M199.69,108.69a3.81,3.81,0,0,1,.43-.59,7.39,7.39,0,0,1,1.38-1.28,8.37,8.37,0,0,1,1.08-.68,7.94,7.94,0,0,1,1.32-.56,8.9,8.9,0,0,1,1.54-.36,8.55,8.55,0,0,1,1.68,0,6.06,6.06,0,0,1,1.67.39,5.23,5.23,0,0,1,1.47.75,5.32,5.32,0,0,1,1.14,1,7.83,7.83,0,0,1,1.24,2.05c.1.31.16.59.22.81a4.7,4.7,0,0,1,.13.7s-.24-.15-.59-.41c-.18-.13-.4-.29-.61-.47a8.37,8.37,0,0,0-.79-.54,5.21,5.21,0,0,0-.92-.55,6.55,6.55,0,0,0-1-.47l-.53-.2c-.17-.07-.37-.08-.55-.14a7.26,7.26,0,0,0-1.15-.19,11.9,11.9,0,0,0-1.2-.06c-.41,0-.82,0-1.22.07s-.81.09-1.19.14l-1.11.17c-.34.08-.68.11-1,.17l-.77.14Z" transform="translate(-54.08 -33.95)"/><path class="cls-14" d="M179.48,412.14s1.71,32-.73,34.94-58.39,17.34-11.48-7.09l-4.65-41.29,14.66,17.59" transform="translate(-54.08 -33.95)"/><path class="cls-9" d="M148.65,452.41c-1.41,4.91,28.33-3.21,30.1-5.33a4.39,4.39,0,0,0,.61-1.69C175,447.78,155.07,453.23,148.65,452.41Z" transform="translate(-54.08 -33.95)"/><path class="cls-9" d="M154.32,446.65l2.93-1.71,7,5.56L160,452.33s-2.87-5.56-8.19.24Z" transform="translate(-54.08 -33.95)"/><path class="cls-22" d="M180.05,434.72c.1-10.09-.57-22.58-.57-22.58l-2.2,4.15L162.62,398.7l4.1,36.47Q173.4,434.92,180.05,434.72Z" transform="translate(-54.08 -33.95)"/><path class="cls-14" d="M210,412.14s-1.71,32,.73,34.94,59.62,16.78,12.71-7.65l-1.15-49.52-10.09,26.38" transform="translate(-54.08 -33.95)"/><path class="cls-9" d="M240.81,452.41c1.4,4.91-28.34-3.21-30.11-5.33a4.39,4.39,0,0,1-.61-1.69C214.48,447.78,234.38,453.23,240.81,452.41Z" transform="translate(-54.08 -33.95)"/><path class="cls-9" d="M236.31,446.11l-2.93-1.71-8.2,6.1,4.28,1.83s2.87-5.56,8.18.24Z" transform="translate(-54.08 -33.95)"/><path class="cls-22" d="M223.3,434.43l-1-44.52-10.09,26.38-2.2-4.15s-.85,16-.49,26.44C214.15,437.38,218.78,436.08,223.3,434.43Z" transform="translate(-54.08 -33.95)"/><polygon class="cls-5" points="90.66 237.26 110.22 396.67 127.47 396.54 123.88 253.45 131.97 253.9 154.47 394.74 172.32 393.24 161.82 222.71 90.66 237.26"/><path class="cls-22" d="M214.83,270.12l-1.14-15.53-68.95,16.62,1.07,8.7C168.88,277.08,192,274.37,214.83,270.12Z" transform="translate(-54.08 -33.95)"/><polygon class="cls-23" points="106.31 389.82 128.46 389.31 129.28 397.4 109.16 399.26 106.31 389.82"/><polygon class="cls-23" points="173.06 388.05 152.42 391.21 153.37 399.3 173.48 397.4 173.06 388.05"/><path class="cls-14" d="M221.93,181.6,240,204.73s43-28.32,45.69-28-40.2,55.07-47.49,57S198,191.13,198,191.13Z" transform="translate(-54.08 -33.95)"/><path class="cls-20" d="M227.5,188.73l-5.57-7.13L198,191.13s4.12,5.59,9.77,12.73C214.37,198.84,221.61,194.6,227.5,188.73Z" transform="translate(-54.08 -33.95)"/><path class="cls-20" d="M254.75,217.72c14.61-16.8,32.73-40.75,30.93-41s-23.56,13.59-36.36,21.9C251.29,205,253.26,211.28,254.75,217.72Z" transform="translate(-54.08 -33.95)"/><path class="cls-4" d="M161.86,149s-20.05-1.91-24.94,11.49S138.39,249,142.79,272c0,0,42.54,4.3,76.77-4.79,0,0-6.85-68.91-5.87-81.36s4.4-29.19-15.16-31.58c0,0-6.85,12-20.54,9.09S161.86,149,161.86,149Z" transform="translate(-54.08 -33.95)"/><path class="cls-16" d="M135.64,199.69c1.23,26.58,4.53,58.62,7.15,72.27,0,0,42.54,4.3,76.77-4.79,0,0-3-30.09-4.74-54.09C187.63,211.56,160.7,207.89,135.64,199.69Z" transform="translate(-54.08 -33.95)"/><path class="cls-4" d="M198.53,154.23s14.47-2,25.77,23.84l3.15,7.2-19.8,12.6Z" transform="translate(-54.08 -33.95)"/><rect class="cls-3" x="230.65" y="211.38" width="58.94" height="11.25" transform="translate(-117.76 282.57) rotate(-56.92)"/><rect class="cls-10" x="230.65" y="211.38" width="58.94" height="11.25" transform="translate(-117.76 282.57) rotate(-56.92)"/><circle class="cls-3" cx="249.35" cy="119.13" r="54.05"/><circle class="cls-5" cx="303.43" cy="153.09" r="43.19" transform="translate(-79.87 34.74) rotate(-12.39)"/><rect class="cls-24" x="175.56" y="251.11" width="107.09" height="22.95" rx="7.2" transform="translate(-170.04 277.28) rotate(-56.92)"/><path class="cls-16" d="M254.75,215.38l3,2a7.2,7.2,0,0,0-10,2.1l-50.6,77.66a7.21,7.21,0,0,0,2.11,10l-3-2a7.2,7.2,0,0,1-2.1-10l50.59-77.67A7.2,7.2,0,0,1,254.75,215.38Z" transform="translate(-54.08 -33.95)"/><path class="cls-25" d="M341.69,133.06l-80.95,26.53a43,43,0,0,1-.15-12.05L337.08,126A43.49,43.49,0,0,1,341.69,133.06Z" transform="translate(-54.08 -33.95)"/><path class="cls-25" d="M345.8,144.81a44.14,44.14,0,0,1,.79,7l-77,28.17a43.26,43.26,0,0,1-6-10.12Z" transform="translate(-54.08 -33.95)"/><path class="cls-14" d="M143.31,196.52l26.55-6.75s2.69,22,6.29,40c5.85,6.3,27.28,40.8,29.7,44.1,0,0,22.5,0,3.6,2.7,0,0,26.1,22.05-1.8,3.6,0,0,29.25,24.75-1.8,2.7,0,0,25.2,22.5-2.25,2.7,0,0,15.75,19.35-2.25,1.8-10.11-9.86-34.37-30.61-45-48.15C148.07,225.58,147.84,206.58,143.31,196.52Z" transform="translate(-54.08 -33.95)"/><path class="cls-20" d="M170.9,194.46c-.65-2.92-1-4.69-1-4.69l-26.55,6.75a56,56,0,0,1,2.34,6.48A241.78,241.78,0,0,1,170.9,194.46Z" transform="translate(-54.08 -33.95)"/></g></svg>