<svg xmlns="http://www.w3.org/2000/svg" width="599.345" height="361.385" viewBox="0 0 599.345 361.385">
  <g id="Layer_2" data-name="Layer 2" transform="translate(0 0.014)">
    <g id="OBJECTS" transform="translate(0 -0.014)">
      <path id="Path_789" data-name="Path 789" d="M87.09,40.92H456.5V264.465a5.741,5.741,0,0,1-5.741,5.741H92.831a5.741,5.741,0,0,1-5.741-5.741V40.92Z" transform="translate(46.604 21.92)" fill="#dae0ef"/>
      <path id="Path_790" data-name="Path 790" d="M103.055,24H440.523a15.965,15.965,0,0,1,15.965,15.965V50.1H87.09V39.965A15.965,15.965,0,0,1,103.055,24Z" transform="translate(46.604 12.865)" fill="#35333c"/>
      <path id="Path_791" data-name="Path 791" d="M112.646,33.893a4.283,4.283,0,1,1-4.283-4.283A4.283,4.283,0,0,1,112.646,33.893Z" transform="translate(55.696 15.867)" fill="#fff"/>
      <path id="Path_792" data-name="Path 792" d="M125.1,33.893a4.283,4.283,0,1,1-4.283-4.283A4.283,4.283,0,0,1,125.1,33.893Z" transform="translate(62.359 15.867)" fill="#fff"/>
      <path id="Path_793" data-name="Path 793" d="M137.557,33.893a4.3,4.3,0,1,1-4.283-4.283A4.3,4.3,0,0,1,137.557,33.893Z" transform="translate(69.01 15.867)" fill="#fff"/>
      <rect id="Rectangle_154" data-name="Rectangle 154" width="71.568" height="109.056" rx="2.35" transform="translate(385.425 140.026)" fill="none" stroke="#fff" stroke-miterlimit="10" stroke-width="1.05"/>
      <rect id="Rectangle_155" data-name="Rectangle 155" width="39.023" height="38.516" rx="2.35" transform="translate(253.987 202.644)" fill="none" stroke="#fff" stroke-miterlimit="10" stroke-width="1.05"/>
      <circle id="Ellipse_15" data-name="Ellipse 15" cx="18.007" cy="18.007" r="18.007" transform="translate(67.185 106.315) rotate(-83)" fill="#ff5a4f"/>
      <path id="Path_794" data-name="Path 794" d="M65.559,56.382a3.73,3.73,0,0,0-5.281,0l-.952.967-.982-.967a3.734,3.734,0,1,0-5.235,5.327l3.623,3.577h0a3.746,3.746,0,0,0,5.281,0l3.577-3.654A3.73,3.73,0,0,0,65.559,56.382Z" transform="translate(27.823 29.608)" fill="#fff"/>
      <path id="Path_795" data-name="Path 795" d="M388.278,94.863H364.023a5.864,5.864,0,0,1-5.8-5.8h0a5.864,5.864,0,0,1,5.8-5.91h24.255a5.849,5.849,0,0,1,5.849,5.91h0a5.849,5.849,0,0,1-5.849,5.8Z" transform="translate(191.694 44.518)" fill="#ff9746"/>
      <path id="Path_796" data-name="Path 796" d="M367.78,87.535A1.535,1.535,0,1,1,366.245,86,1.535,1.535,0,0,1,367.78,87.535Z" transform="translate(195.167 46.043)" fill="#fff"/>
      <path id="Path_797" data-name="Path 797" d="M371.96,87.535A1.535,1.535,0,1,1,370.425,86,1.535,1.535,0,0,1,371.96,87.535Z" transform="translate(197.404 46.043)" fill="#fff"/>
      <path id="Path_798" data-name="Path 798" d="M376.14,87.535A1.535,1.535,0,1,1,374.605,86,1.535,1.535,0,0,1,376.14,87.535Z" transform="translate(199.641 46.043)" fill="#fff"/>
      <path id="Path_799" data-name="Path 799" d="M397.762,137.805H373.875a3.27,3.27,0,0,1-3.285-3.27h0a3.285,3.285,0,0,1,3.27-3.285h23.887a3.27,3.27,0,0,1,3.285,3.27h0a3.285,3.285,0,0,1-3.27,3.285Z" transform="translate(198.313 70.258)" fill="#dae0ef"/>
      <path id="Path_800" data-name="Path 800" d="M141.9,8.894H64.515a3.27,3.27,0,0,1-3.285-3.27h0A3.285,3.285,0,0,1,64.5,2.4h77.4a3.3,3.3,0,0,1,3.285,3.285h0A3.285,3.285,0,0,1,141.9,8.894Z" transform="translate(32.766 1.307)" fill="#dae0ef"/>
      <rect id="Rectangle_156" data-name="Rectangle 156" width="10.147" height="9.825" rx="1.61" transform="translate(521.084 0.014) rotate(-0.08)" fill="#dae0ef"/>
      <rect id="Rectangle_157" data-name="Rectangle 157" width="10.147" height="9.825" rx="1.61" transform="translate(37.439 195.714) rotate(-0.08)" fill="#dae0ef"/>
      <path id="Path_801" data-name="Path 801" d="M82.744,136.178l-2.917,14.86-11.9-2.947,4.39-22.321Z" transform="translate(36.351 67.325)" fill="#ffaa9e"/>
      <path id="Path_802" data-name="Path 802" d="M77.912,141.541c0-.261-4.252-8.981-4.252-8.981l5.726,1.75Z" transform="translate(39.418 70.959)" fill="#1f120a"/>
      <path id="Path_803" data-name="Path 803" d="M84.219,113.38s6.908.246,8.382,8.689c0,0,1.013,6.141,2.395,14.967a7.384,7.384,0,0,1-7.676,8.612,22.122,22.122,0,0,1-9.211-2.763l-4.39-3.07c-10.454-9-4.252-26.42,9.549-26.374Z" transform="translate(36.642 60.695)" fill="#ffaa9e"/>
      <path id="Path_804" data-name="Path 804" d="M84.14,124.23l3.638,2.947c.691.445.66,1.535.092,1.75l-3.07.737Z" transform="translate(45.026 66.501)" fill="#ffaa9e"/>
      <path id="Path_805" data-name="Path 805" d="M80.166,130.716s-5.081-19.742,13.816-13.693c0,0-10.024-10.746-24.792-1.842a14.323,14.323,0,0,0-6.141,9.917c-.737,8.8,6.141,9.487,9.825,18.59,0,0,4.39-1.366,5.051-7.676A25.313,25.313,0,0,1,80.166,130.716Z" transform="translate(33.71 59.77)" fill="#312220"/>
      <path id="Path_806" data-name="Path 806" d="M70.162,124.685l4.605,6.555c24.163-9.1,10.07-17.946,10.07-17.946S65.74,110.239,70.162,124.685Z" transform="translate(37.19 60.505)" fill="#312220"/>
      <path id="Path_807" data-name="Path 807" d="M80.3,122.28l-5.066,5.926-2.257-5.772Z" transform="translate(39.054 65.458)" fill="#312220"/>
      <path id="Path_808" data-name="Path 808" d="M78.415,115.185s7.983.276,9.825,5.542c0,0,7.676-10.27-8.689-8.013C71.814,113.788,78.415,115.185,78.415,115.185Z" transform="translate(40.558 60.165)" fill="#312220"/>
      <path id="Path_809" data-name="Path 809" d="M69.361,126.792a4.605,4.605,0,1,0,4.329-4.759,4.605,4.605,0,0,0-4.329,4.759Z" transform="translate(37.116 65.321)" fill="#ffaa9e"/>
      <path id="Path_810" data-name="Path 810" d="M74.805,126.452s-.154-3.285-3.285-2.61" transform="translate(38.272 66.245)" fill="none" stroke="#081921" stroke-linecap="round" stroke-linejoin="round" stroke-width="0.45"/>
      <path id="Path_811" data-name="Path 811" d="M73.65,120.657s-5.02-17.838-16.886-10.746a10.285,10.285,0,0,0-4.329,10.915,8.09,8.09,0,0,0,5.48,6.033,13.908,13.908,0,0,0,14.875-3.469Z" transform="translate(27.914 57.947)" fill="#312220"/>
      <path id="Path_812" data-name="Path 812" d="M83.2,120.831s2.379-.614,2.656.461c0,0,.184.722-1.9,1.213s-2.671.414-3.07-.23S82.064,121.03,83.2,120.831Z" transform="translate(43.249 64.589)" fill="#081921"/>
      <path id="Path_813" data-name="Path 813" d="M82.533,125.073a1.029,1.029,0,0,0,.921,1.151,1.013,1.013,0,0,0,1.105-.952,1.029,1.029,0,0,0-.921-1.151,1.013,1.013,0,0,0-1.105.952Z" transform="translate(44.161 66.441)" fill="#081921"/>
      <path id="Path_814" data-name="Path 814" d="M86.113,129.395a6.294,6.294,0,0,1-3.423-.414" transform="translate(44.25 69.043)" fill="none" stroke="#081921" stroke-linecap="round" stroke-linejoin="round" stroke-width="0.45"/>
      <path id="Path_815" data-name="Path 815" d="M115.281,156.188,76.9,142.71l-7.783,15C84.287,163.618,110.384,171,110.384,171a7.814,7.814,0,0,0,10.086-6.141h0A7.814,7.814,0,0,0,115.281,156.188Z" transform="translate(36.988 76.39)" fill="#ffaa9e"/>
      <path id="Path_816" data-name="Path 816" d="M74.469,163.3l14.522,5.2,8.489-21.169L82.13,141.9a11.345,11.345,0,0,0-14.461,6.847h0A11.36,11.36,0,0,0,74.469,163.3Z" transform="translate(35.845 75.606)" fill="#1f120a"/>
      <path id="Path_817" data-name="Path 817" d="M107.415,171.631l13.54-32.652L114.6,133.13,93.245,164.969a7.829,7.829,0,0,0,4.882,10.746h0A7.8,7.8,0,0,0,107.415,171.631Z" transform="translate(49.522 71.264)" fill="#ffaa9e"/>
      <path id="Path_818" data-name="Path 818" d="M111.05,142.088s3.654-1.151,10.424-8.259L113.8,127.32Z" transform="translate(59.426 68.155)" fill="#ffaa9e"/>
      <rect id="Rectangle_158" data-name="Rectangle 158" width="64.061" height="75.329" rx="1.48" transform="translate(174.805 175.794)" fill="#fff"/>
      <path id="Path_819" data-name="Path 819" d="M126.006,133.949a15.076,15.076,0,0,1,.476-3.654l-2.7-1.105a17.377,17.377,0,0,0-.66,4.759,17.746,17.746,0,0,0,7.814,14.707l2.364-1.95A14.845,14.845,0,0,1,126.006,133.949Z" transform="translate(65.885 69.155)" fill="#ff5a4f"/>
      <path id="Path_820" data-name="Path 820" d="M140.691,120.71a17.792,17.792,0,0,0-17.1,13.018l2.7,1.105a14.86,14.86,0,1,1,14.4,18.56,14.66,14.66,0,0,1-7.584-2.1l-2.364,1.95a17.643,17.643,0,1,0,9.948-32.468Z" transform="translate(66.137 64.618)" fill="#ff9746"/>
      <line id="Line_40" data-name="Line 40" x2="38.916" transform="translate(187.362 229.969)" fill="none" stroke="#dae0ef" stroke-linecap="round" stroke-linejoin="round" stroke-width="1.05"/>
      <line id="Line_41" data-name="Line 41" x2="11.621" transform="translate(187.362 235.511)" fill="none" stroke="#dae0ef" stroke-linecap="round" stroke-linejoin="round" stroke-width="1.05"/>
      <path id="Path_821" data-name="Path 821" d="M106.91,137.9l9.456-12.788a2.2,2.2,0,0,1,2.947-.568h0a2.226,2.226,0,0,1,.691,3.07l-2.118,3.577s.292,10.147-5.1,12.7Z" transform="translate(57.211 66.49)" fill="#ffaa9e"/>
      <path id="Path_822" data-name="Path 822" d="M86.308,142.279h0c4.483,1.627,11.145,15.351,11.529,17.746a15.351,15.351,0,0,1-5.051,14.492L86.4,195.072l-30.58-.537,5.112-44.519c.921-9.211,13.478-10.746,13.478-10.746Z" transform="translate(29.871 74.55)" fill="#35333c"/>
      <path id="Path_823" data-name="Path 823" d="M38.29,164.759l5.373,37.826,8.459-1.3,1.535-38.962a7.814,7.814,0,0,0-10.07-6.141h0A7.814,7.814,0,0,0,38.29,164.759Z" transform="translate(20.444 83.401)" fill="#ffaa9e"/>
      <path id="Path_824" data-name="Path 824" d="M55.966,188.358a2.579,2.579,0,0,1,.522,2.7,1.934,1.934,0,0,1-2.963.86l-.875-.614c-.675,1.182-1.151,3.684,3.178,8.643a2.165,2.165,0,0,1,0,2.855,1.658,1.658,0,0,1-2.057.292h-.092a2.026,2.026,0,0,1-.461,1.811,1.643,1.643,0,0,1-2.057.292,1.014,1.014,0,0,1-.261-.184,1.873,1.873,0,0,1-.445.844,1.658,1.658,0,0,1-2.057.292,2.44,2.44,0,0,1-.537-.445,2.254,2.254,0,0,1-.154-.2.322.322,0,0,0,0,.092,1.673,1.673,0,0,1-2.072.276,1.95,1.95,0,0,1-.522-.43,24.869,24.869,0,0,1-2.932-4.022h0a16.376,16.376,0,0,1-.89-1.811c-1.274-2.779.906-8.351.737-13.294L50.271,183Z" transform="translate(21.881 97.951)" fill="#ffaa9e"/>
      <path id="Path_825" data-name="Path 825" d="M50.187,178.129l34.54-21.492-6.908-15.4c-14.108,8.121-36.152,23.733-36.152,23.733a7.814,7.814,0,0,0-1.535,11.682h0a7.829,7.829,0,0,0,10.055,1.474Z" transform="translate(20.429 75.604)" fill="#ffaa9e"/>
      <path id="Path_826" data-name="Path 826" d="M67.709,142.03,51.16,150.688l9.763,20.555,18.56-9.794a11.345,11.345,0,0,0,3.822-15.52h0a11.329,11.329,0,0,0-15.6-3.9Z" transform="translate(27.377 75.152)" fill="#35333c"/>
      <line id="Line_42" data-name="Line 42" y1="11.099" x2="21.031" transform="translate(88.301 235.296)" fill="none" stroke="#211b1e" stroke-miterlimit="10" stroke-width="0.57"/>
      <path id="Path_827" data-name="Path 827" d="M38.94,222.834l21.246,6.325,2.395-14.584-23.4-6.555L38.05,218.965Z" transform="translate(20.362 111.34)" fill="#ffaa9e"/>
      <path id="Path_828" data-name="Path 828" d="M48.809,209.605s-6.141,11.038,1.228,17.209L32.46,250.24,37.173,205Z" transform="translate(17.37 109.724)" fill="#232323"/>
      <rect id="Rectangle_159" data-name="Rectangle 159" width="45.563" height="4.298" transform="translate(54.549 314.673) rotate(95.94)" fill="#dae0ef"/>
      <path id="Path_829" data-name="Path 829" d="M43.652,222.712a17.04,17.04,0,0,0-3.562-4.222" transform="translate(21.453 116.943)" fill="none" stroke="#fff" stroke-linecap="round" stroke-linejoin="round" stroke-width="1.02"/>
      <path id="Path_830" data-name="Path 830" d="M42.1,225.077a17.378,17.378,0,0,0-3.546-4.237" transform="translate(20.629 118.2)" fill="none" stroke="#fff" stroke-linecap="round" stroke-linejoin="round" stroke-width="1.02"/>
      <path id="Path_831" data-name="Path 831" d="M40.562,227.5A17.254,17.254,0,0,0,37,223.19" transform="translate(19.8 119.458)" fill="none" stroke="#fff" stroke-linecap="round" stroke-linejoin="round" stroke-width="1.02"/>
      <path id="Path_832" data-name="Path 832" d="M96.386,178.54c.461,1.351,9.7,47.988,13.049,65.581a12.02,12.02,0,0,1-12.849,14.215L47.83,248.573l2.149-24.562,29.167,5.649L67.28,196.01Z" transform="translate(25.595 95.564)" fill="#ff5a4f"/>
      <line id="Line_43" data-name="Line 43" x1="1.811" y2="24.777" transform="translate(84.248 321.524)" fill="none" stroke="#211b1e" stroke-miterlimit="10" stroke-width="0.57"/>
      <path id="Path_833" data-name="Path 833" d="M113.333,234.839l4.1-21.8-14.753-.86-4.1,23.933h10.992Z" transform="translate(52.753 113.566)" fill="#ffaa9e"/>
      <path id="Path_834" data-name="Path 834" d="M99.36,224.514s11.621,4.928,17.009-2.993l25.053,15.06H95.86Z" transform="translate(51.297 118.564)" fill="#232323"/>
      <rect id="Rectangle_160" data-name="Rectangle 160" width="45.563" height="4.298" transform="translate(147.157 355.144)" fill="#dae0ef"/>
      <path id="Path_835" data-name="Path 835" d="M112.688,222.8a17.409,17.409,0,0,0-3.838,3.976" transform="translate(58.249 119.249)" fill="none" stroke="#fff" stroke-linecap="round" stroke-linejoin="round" stroke-width="1.02"/>
      <path id="Path_836" data-name="Path 836" d="M115.188,224.1a17.1,17.1,0,0,0-3.838,3.961" transform="translate(59.587 119.945)" fill="none" stroke="#fff" stroke-linecap="round" stroke-linejoin="round" stroke-width="1.02"/>
      <path id="Path_837" data-name="Path 837" d="M117.688,225.39a16.994,16.994,0,0,0-3.838,3.976" transform="translate(60.924 120.635)" fill="none" stroke="#fff" stroke-linecap="round" stroke-linejoin="round" stroke-width="1.02"/>
      <path id="Path_838" data-name="Path 838" d="M56.279,180.062c.368.875,51.9-8.09,83.864-13.54a14.737,14.737,0,0,1,17.009,16.886l-10.93,60.208H118.405l6.355-47.758L79.582,209.322c-18.176,3.362-26.1-10.393-24.393-21.676Z" transform="translate(29.412 89.022)" fill="#ff5a4f"/>
      <line id="Line_44" data-name="Line 44" x1="28.093" transform="translate(149.122 322.829)" fill="none" stroke="#211b1e" stroke-miterlimit="10" stroke-width="0.57"/>
      <path id="Path_839" data-name="Path 839" d="M92.836,191.05S71.345,199.862,61.75,194.8" transform="translate(33.044 102.259)" fill="none" stroke="#211b1e" stroke-miterlimit="10" stroke-width="0.57"/>
      <path id="Path_840" data-name="Path 840" d="M349.143,211.911l-20.233-9.088,7.737-12.6,21.983,10.316-6.279,9.027Z" transform="translate(176.009 101.814)" fill="#ffaa9e"/>
      <path id="Path_841" data-name="Path 841" d="M349.929,194.13s-2.594,12.358-12.174,12.281l-1.965,29.167,26.1-37.38Z" transform="translate(179.691 103.907)" fill="#232323"/>
      <rect id="Rectangle_161" data-name="Rectangle 161" width="45.563" height="4.298" transform="translate(545.02 304.484) rotate(124.87)" fill="#dae0ef"/>
      <path id="Path_842" data-name="Path 842" d="M336.89,204.9a16.887,16.887,0,0,1,5.45-.875" transform="translate(180.28 109.199)" fill="none" stroke="#fff" stroke-linecap="round" stroke-linejoin="round" stroke-width="1.02"/>
      <path id="Path_843" data-name="Path 843" d="M336.52,207.685a16.888,16.888,0,0,1,5.45-.875" transform="translate(180.082 110.692)" fill="none" stroke="#fff" stroke-linecap="round" stroke-linejoin="round" stroke-width="1.02"/>
      <path id="Path_844" data-name="Path 844" d="M336.15,210.475a17.364,17.364,0,0,1,5.465-.875" transform="translate(179.884 112.185)" fill="none" stroke="#fff" stroke-linecap="round" stroke-linejoin="round" stroke-width="1.02"/>
      <path id="Path_845" data-name="Path 845" d="M319.173,125.66s-13.141,49.017-15.075,58.688-5.8,29,2.318,35.953,39.315,23.641,39.315,23.641L357.2,223.356l-18.59-11.206Z" transform="translate(161.322 67.267)" fill="#28272d"/>
      <path id="Path_846" data-name="Path 846" d="M325.889,234.979l-4.1-21.8,14.753-.86,4.1,23.948H329.65Z" transform="translate(172.199 113.641)" fill="#ffaa9e"/>
      <path id="Path_847" data-name="Path 847" d="M349.157,224.69s-11.606,4.928-16.994-3.07L307.11,236.695h45.563Z" transform="translate(164.343 118.617)" fill="#232323"/>
      <rect id="Rectangle_162" data-name="Rectangle 162" width="45.563" height="4.298" transform="translate(517.016 359.672) rotate(180)" fill="#dae0ef"/>
      <path id="Path_848" data-name="Path 848" d="M321.29,223a16.994,16.994,0,0,1,3.838,3.976" transform="translate(171.932 119.356)" fill="none" stroke="#fff" stroke-linecap="round" stroke-linejoin="round" stroke-width="1.02"/>
      <path id="Path_849" data-name="Path 849" d="M318.79,224.24a16.994,16.994,0,0,1,3.838,3.976" transform="translate(170.594 120.02)" fill="none" stroke="#fff" stroke-linecap="round" stroke-linejoin="round" stroke-width="1.02"/>
      <path id="Path_850" data-name="Path 850" d="M316.29,225.54a17.1,17.1,0,0,1,3.838,3.961" transform="translate(169.256 120.715)" fill="none" stroke="#fff" stroke-linecap="round" stroke-linejoin="round" stroke-width="1.02"/>
      <path id="Path_851" data-name="Path 851" d="M347.1,160.738s4.513-26.773-7.844-34.94l-24.7-.138L310.1,142.546l4.007,8.535-.86,48.6a41.443,41.443,0,0,0,.629,7.921l10.992,57.03h23.027l-6.417-64.322C341.708,188.4,345.638,175.153,347.1,160.738Z" transform="translate(165.943 67.267)" fill="#35333c"/>
      <path id="Path_852" data-name="Path 852" d="M322.273,116.649l-20.079.522a8.413,8.413,0,0,1-7.338-6.263h0c-1.228-4.82-1.412-8.351,3.5-9.057l23.027-3.07Z" transform="translate(157.394 52.882)" fill="#e68078"/>
      <path id="Path_853" data-name="Path 853" d="M330.326,118.034a63.77,63.77,0,0,1-21.569,4.36L307.79,99.75l21.492-2.64Z" transform="translate(164.707 51.989)" fill="#a2a0b7"/>
      <path id="Path_854" data-name="Path 854" d="M312.126,117.111,294.656,79.27l-7.906,1.274,12.542,42.231a8.4,8.4,0,0,0,14.568,1.075h0C315.518,121.348,313.461,119.8,312.126,117.111Z" transform="translate(153.448 42.442)" fill="#e68078"/>
      <path id="Path_855" data-name="Path 855" d="M337.959,87.23l-94.794-.353A2.18,2.18,0,0,1,241,84.7l.184-24.362a2.165,2.165,0,0,1,2.165-2.165l94.81.353a2.149,2.149,0,0,1,2.149,2.18l-.169,24.362a2.18,2.18,0,0,1-2.18,2.165Z" transform="translate(128.966 31.151)" fill="#fff"/>
      <path id="Path_856" data-name="Path 856" d="M255.6,77.948h0a7.829,7.829,0,0,1-7.829-7.829h0A7.829,7.829,0,0,1,255.6,62.29h0a7.829,7.829,0,0,1,7.829,7.829h0A7.829,7.829,0,0,1,255.6,77.948Z" transform="translate(132.589 33.355)" fill="#ff9746"/>
      <line id="Line_45" data-name="Line 45" x2="44.918" transform="translate(404.276 100.696)" fill="none" stroke="#dae0ef" stroke-linecap="round" stroke-linejoin="round" stroke-width="1.05"/>
      <line id="Line_46" data-name="Line 46" x2="9.272" transform="translate(404.276 106.253)" fill="none" stroke="#dae0ef" stroke-linecap="round" stroke-linejoin="round" stroke-width="1.05"/>
      <path id="Path_857" data-name="Path 857" d="M297.783,88.879l3.285-6.54a4.728,4.728,0,0,0,.706-3.638l-1.98-5.4a2.042,2.042,0,0,0-2.978-1.182,1.781,1.781,0,0,0-.86,1.535l.23,3.669-1.8,2.625-10.73-.184s.614,3.73,6.233,9.763l4.176.952,3.715-1.535Z" transform="translate(151.795 38.467)" fill="#e68078"/>
      <path id="Path_858" data-name="Path 858" d="M329.586,96.49s-14.4,2.9-17.93,15.014c-1.075,3.684,2.18,29.766,2.18,29.766l24.7.138s4.176-8.382,8.658-16.595.752-18.3-6.279-24.731Z" transform="translate(166.66 51.657)" fill="#afacc3"/>
      <path id="Path_859" data-name="Path 859" d="M339.553,125.279l15.351,42.8,7.445-2.472s-4.912-34.172-9.794-45.609a8.366,8.366,0,0,0-14.522-1.535h0C336.3,120.935,338.341,122.546,339.553,125.279Z" transform="translate(180.533 61.522)" fill="#e68078"/>
      <path id="Path_860" data-name="Path 860" d="M348.41,157.862a2.748,2.748,0,0,0,1.3,2.333,1.627,1.627,0,0,0,2.487-1.105l.215-1c1.151.491,2.978,2.088,3.07,8.382a2.226,2.226,0,0,0,1.7,2.18,1.366,1.366,0,0,0,1.535-1.013.2.2,0,0,0,0-.092,2.042,2.042,0,0,0,1.412,1.09,1.381,1.381,0,0,0,1.535-1.013,2.03,2.03,0,0,0,.077-.292,1.734,1.734,0,0,0,.8.368,1.4,1.4,0,0,0,1.535-1.013,1.779,1.779,0,0,0,.077-.645V165.8h.092a1.4,1.4,0,0,0,1.535-1.013,1.781,1.781,0,0,0,0-.645,26.1,26.1,0,0,0-.476-4.744h0a16.884,16.884,0,0,0-.507-1.888c-.814-2.84-5.634-5.741-8.52-9.549l-7.445,2.472Z" transform="translate(186.444 79.2)" fill="#e68078"/>
      <path id="Path_861" data-name="Path 861" d="M344.667,106.79l9.671,14.6a8.382,8.382,0,0,1-.261,9.625h0c-2.978,3.991-5.619,6.355-9.211,2.963l-13.816-16.3Z" transform="translate(177.154 57.169)" fill="#e68078"/>
      <path id="Path_862" data-name="Path 862" d="M334.274,98.83s10.93,3.961,19.389,17.163l-15.6,12.8L323.85,116.653Z" transform="translate(173.301 52.909)" fill="#afacc3"/>
      <line id="Line_47" data-name="Line 47" x1="10.316" y1="8.827" transform="translate(501.051 172.878)" fill="none" stroke="#211b1e" stroke-miterlimit="10" stroke-width="0.57"/>
      <path id="Path_863" data-name="Path 863" d="M322.911,92.051l-1.151,15.5,12.68-.89,1.627-22.106Z" transform="translate(172.183 45.273)" fill="#e68078"/>
      <path id="Path_864" data-name="Path 864" d="M322.05,98.236c0-.276,6.662-7.676,6.662-7.676l-6.141.184Z" transform="translate(172.338 48.483)" fill="#1f120a"/>
      <path id="Path_865" data-name="Path 865" d="M332.795,70.179s-6.908-1.643-10.669,6.325c0,0-2.671,5.8-6.448,14.169a7.676,7.676,0,0,0,5.312,10.654,23.027,23.027,0,0,0,9.871-.246l5.2-1.934c12.818-6.141,11.406-25.007-2.272-28.722Z" transform="translate(168.563 37.502)" fill="#e68078"/>
      <path id="Path_866" data-name="Path 866" d="M320.111,79.41l-4.421,1.934c-.8.246-1.09,1.412-.568,1.7l2.794,1.535Z" transform="translate(168.49 42.517)" fill="#e68078"/>
      <path id="Path_867" data-name="Path 867" d="M331.653,88.881s10.424-18.176-9.963-17.332c0,0,12.849-7.906,25.053,4.928a14.753,14.753,0,0,1,3.362,11.483c-1.673,8.919-8.75,7.676-14.8,15.735,0,0-3.976-2.548-2.9-9.011A25.29,25.29,0,0,0,331.653,88.881Z" transform="translate(172.146 37.021)" fill="#1f120a"/>
      <path id="Path_868" data-name="Path 868" d="M339.429,85.035l-6.417,5.219c-21.492-15.612-5.1-20.525-5.1-20.525S347.749,71.925,339.429,85.035Z" transform="translate(172.276 37.337)" fill="#1f120a"/>
      <path id="Path_869" data-name="Path 869" d="M325.14,79.22l3.408,7.246,3.807-5.112Z" transform="translate(173.992 42.415)" fill="#1f120a"/>
      <path id="Path_870" data-name="Path 870" d="M331.739,72.947s-7.983-1.9-11.237,2.825c0,0-4.774-12.281,10.746-5.573C338.662,73.361,331.739,72.947,331.739,72.947Z" transform="translate(171.139 36.515)" fill="#1f120a"/>
      <path id="Path_871" data-name="Path 871" d="M335.794,86.449a4.605,4.605,0,1,1-.244-3.577A4.605,4.605,0,0,1,335.794,86.449Z" transform="translate(174.898 43.016)" fill="#e68078"/>
      <path id="Path_872" data-name="Path 872" d="M328.31,84.245a2.717,2.717,0,0,1,3.961-1.7" transform="translate(175.688 44.007)" fill="none" stroke="#081921" stroke-linecap="round" stroke-linejoin="round" stroke-width="0.46"/>
      <path id="Path_873" data-name="Path 873" d="M321.973,76.683s-2.2-1.243-2.763-.261c0,0-.368.66,1.535,1.719s2.533,1.136,3.07.583S323,77.189,321.973,76.683Z" transform="translate(170.803 40.715)" fill="#1f120a"/>
      <path id="Path_874" data-name="Path 874" d="M320.441,80.784a1.075,1.075,0,0,1-1.228.89,1.09,1.09,0,0,1,.368-2.134A1.075,1.075,0,0,1,320.441,80.784Z" transform="translate(170.401 42.586)" fill="#1f120a"/>
      <path id="Path_875" data-name="Path 875" d="M315.856,83.1l3.439,1.535s-1.09,1.535-4.145.338a12.959,12.959,0,0,1,.706-1.873Z" transform="translate(168.646 44.491)" fill="#fff"/>
      <path id="Path_876" data-name="Path 876" d="M337.193,78.862h0c-2.871-9.809,2.733-12.281,7.353-10.117a8.244,8.244,0,0,1,2,1.336s2.733-6.325,7.891-4.083c0,0,3.945,1.535,1.213,7.415a5.879,5.879,0,0,1,5.726,1.873,5.327,5.327,0,0,1,.491,5.6,9.21,9.21,0,0,1-3.838,3.807s2.625,3.408-.783,5.619c-2.763,1.781-6.233-.875-6.233-.875s1.136,4.16-1.366,5.1-5.557-1-8.474-6.739a70.083,70.083,0,0,1-3.976-8.934Z" transform="translate(180.023 35.082)" fill="#1f120a"/>
      <path id="Path_877" data-name="Path 877" d="M330.7,97.165l6.463,2.917s-8.673,7.676-16.057,3.991c-8.013-4.068,4.728-7.584,4.728-7.584Z" transform="translate(170.415 51.657)" fill="#e68078"/>
      <path id="Path_878" data-name="Path 878" d="M197.55,213.725l.583,12.619h13.647l-.553-13.264Z" transform="translate(105.715 114.047)" fill="#ffaa9e"/>
      <path id="Path_879" data-name="Path 879" d="M202.842,221.274v8.29L187.905,233a8.259,8.259,0,0,0-5.312,7.138l-.154,1.873h41.448l-2.211-20.893Z" transform="translate(97.629 118.35)" fill="#232323"/>
      <line id="Line_48" data-name="Line 48" x2="40.113" transform="translate(280.683 356.31)" fill="none" stroke="#fff" stroke-linecap="round" stroke-linejoin="round" stroke-width="0.41"/>
      <line id="Line_49" data-name="Line 49" x2="2.594" y2="2.671" transform="translate(292.289 349.709)" fill="none" stroke="#fff" stroke-linecap="round" stroke-linejoin="round" stroke-width="1.02"/>
      <line id="Line_50" data-name="Line 50" x2="2.594" y2="2.671" transform="translate(296.925 348.742)" fill="none" stroke="#fff" stroke-linecap="round" stroke-linejoin="round" stroke-width="1.02"/>
      <path id="Path_880" data-name="Path 880" d="M195.989,184.7l24.777-58.534,22.152,25.222-22.536,49.922-.2,64.291H193.471l-1.351-60.085C192.289,196.4,192.688,191.275,195.989,184.7Z" transform="translate(102.809 67.539)" fill="#35333c"/>
      <line id="Line_51" data-name="Line 51" x1="27.003" transform="translate(296.019 323.351)" fill="none" stroke="#211b1e" stroke-miterlimit="10" stroke-width="0.57"/>
      <path id="Path_881" data-name="Path 881" d="M235.71,213.95l1.8,12.281h13.632l-1.75-12.941Z" transform="translate(126.135 114.16)" fill="#ffaa9e"/>
      <path id="Path_882" data-name="Path 882" d="M241.765,221.247v8.29l-14.86,3.439a8.259,8.259,0,0,0-5.312,7.138l-.154,1.873h42.984l-3.746-20.816Z" transform="translate(118.499 118.377)" fill="#232323"/>
      <line id="Line_52" data-name="Line 52" x2="41.633" transform="translate(340.476 356.31)" fill="none" stroke="#fff" stroke-linecap="round" stroke-linejoin="round" stroke-width="0.41"/>
      <line id="Line_53" data-name="Line 53" x2="2.594" y2="2.671" transform="translate(351.959 349.801)" fill="none" stroke="#fff" stroke-linecap="round" stroke-linejoin="round" stroke-width="1.02"/>
      <line id="Line_54" data-name="Line 54" x2="2.594" y2="2.671" transform="translate(356.718 348.742)" fill="none" stroke="#fff" stroke-linecap="round" stroke-linejoin="round" stroke-width="1.02"/>
      <path id="Path_883" data-name="Path 883" d="M242.972,126.17s11.421,7.676,14.277,44.028,9.518,95.408,9.518,95.408H240.93L216,131.328Z" transform="translate(115.588 67.539)" fill="#35333c"/>
      <line id="Line_55" data-name="Line 55" x1="26.558" transform="translate(354.676 323.351)" fill="none" stroke="#211b1e" stroke-miterlimit="10" stroke-width="0.57"/>
      <line id="Line_56" data-name="Line 56" x1="10.884" y1="7.952" transform="translate(327.228 227.329)" fill="none" stroke="#211b1e" stroke-miterlimit="10" stroke-width="0.57"/>
      <path id="Path_884" data-name="Path 884" d="M209.967,96.781a157.827,157.827,0,0,0-32.56,28.507,10.086,10.086,0,0,0,1.075,14.031h0a10.086,10.086,0,0,0,13.478-.184l30.457-26.4a10.163,10.163,0,0,0,.768-14.139h0a10.147,10.147,0,0,0-13.217-1.811Z" transform="translate(93.681 50.921)" fill="#ff5a4f"/>
      <path id="Path_885" data-name="Path 885" d="M217.751,115.856,104.275,115.5a2.18,2.18,0,0,1-2.165-2.18l.184-52.808a2.18,2.18,0,0,1,2.18-2.165l113.477.353a2.18,2.18,0,0,1,2.2,2.18l-.184,52.808a2.18,2.18,0,0,1-2.211,2.165Z" transform="translate(54.642 31.247)" fill="#fff"/>
      <rect id="Rectangle_163" data-name="Rectangle 163" width="15.658" height="15.658" rx="1.49" transform="translate(173.362 98.424)" fill="#ff5a4f"/>
      <line id="Line_57" data-name="Line 57" x2="59.44" transform="translate(197.279 103.475)" fill="none" stroke="#dae0ef" stroke-linecap="round" stroke-linejoin="round" stroke-width="1.05"/>
      <line id="Line_58" data-name="Line 58" x2="38.163" transform="translate(197.279 109.032)" fill="none" stroke="#dae0ef" stroke-linecap="round" stroke-linejoin="round" stroke-width="1.05"/>
      <rect id="Rectangle_164" data-name="Rectangle 164" width="15.658" height="15.658" rx="1.49" transform="translate(173.362 119.716)" fill="#ff9746"/>
      <line id="Line_59" data-name="Line 59" x2="59.44" transform="translate(197.279 124.782)" fill="none" stroke="#dae0ef" stroke-linecap="round" stroke-linejoin="round" stroke-width="1.05"/>
      <line id="Line_60" data-name="Line 60" x2="13.171" transform="translate(197.279 130.324)" fill="none" stroke="#dae0ef" stroke-linecap="round" stroke-linejoin="round" stroke-width="1.05"/>
      <path id="Path_886" data-name="Path 886" d="M169.748,104.832l-.568-7.277a4.82,4.82,0,0,0-1.243-3.5l-4.467-3.638a2.042,2.042,0,0,0-3.162.507,1.7,1.7,0,0,0,0,1.75l2.072,3.07-.092,3.147H147.12a35.6,35.6,0,0,0,15.843,10.9l8.213,8.29,6.923-8.059Z" transform="translate(78.728 48.119)" fill="#ffaa9e"/>
      <path id="Path_887" data-name="Path 887" d="M200.518,124.109,164.58,97.72,156.49,108.9,188.3,138.769c5.972,4.605,14.937,1.274,15.981-5.926h0a9.211,9.211,0,0,0-3.761-8.735Z" transform="translate(83.742 52.315)" fill="#ff5a4f"/>
      <path id="Path_888" data-name="Path 888" d="M220.612,92.111l17.055-2.871,9.211,17.147L255,148.9s-27.279,19.343-45.778,9.978l-10.1-59.962,10.746-3.761Z" transform="translate(106.555 47.777)" fill="#ff5a4f"/>
      <line id="Line_61" data-name="Line 61" x2="2.241" y2="12.91" transform="translate(308.192 160.873)" fill="none" stroke="#211b1e" stroke-miterlimit="10" stroke-width="0.57"/>
      <path id="Path_889" data-name="Path 889" d="M256.088,153.992a9.011,9.011,0,1,0-5.389,4.363A9,9,0,0,0,256.088,153.992Z" transform="translate(127.986 75.332)" fill="#ffaa9e"/>
      <path id="Path_890" data-name="Path 890" d="M240.3,152.127s-4.037-.814-2.1-5.127,6.831-8.812,15.106-5.112Z" transform="translate(127.183 75.217)" fill="#ffaa9e"/>
      <path id="Path_891" data-name="Path 891" d="M247.239,116.177,240.5,159.8l16.641,1.643,9.042-42.124a9.61,9.61,0,0,0-12.926-10.638h0a9.625,9.625,0,0,0-6.018,7.491Z" transform="translate(128.698 57.837)" fill="#ff5a4f"/>
      <path id="Path_892" data-name="Path 892" d="M234.682,90.459c7.86,4.13,25.713,14.369,40.4,28.768a11.56,11.56,0,0,1,.384,16.119h0a11.544,11.544,0,0,1-15.351,1.351l-37.81-26.588a11.636,11.636,0,0,1-2.5-16.027h0A11.621,11.621,0,0,1,234.682,90.459Z" transform="translate(116.479 47.725)" fill="#ff5a4f"/>
      <line id="Line_62" data-name="Line 62" x1="10.592" y1="7.461" transform="translate(345.312 162.439)" fill="none" stroke="#211b1e" stroke-miterlimit="10" stroke-width="0.57"/>
      <path id="Path_893" data-name="Path 893" d="M203.62,89.434l4.866,15.781,14.292-4.483L213.967,75.48Z" transform="translate(108.963 40.414)" fill="#ffaa9e"/>
      <path id="Path_894" data-name="Path 894" d="M206.226,94.206c-.092-.261,4.268-10.546,4.268-10.546L204,86.822Z" transform="translate(109.166 44.791)" fill="#312220"/>
      <path id="Path_895" data-name="Path 895" d="M201.989,64.5s-7.092,1.673-6.877,10.746c0,0,.215,6.555.614,15.965a7.814,7.814,0,0,0,9.779,7.323,23.5,23.5,0,0,0,8.95-4.774l3.884-4.16c8.95-11.467-1.059-28.185-15.351-25.3Z" transform="translate(104.407 34.257)" fill="#ffaa9e"/>
      <path id="Path_896" data-name="Path 896" d="M197.143,77.37l-3.07,3.316a.722.722,0,0,0,.507,1.228l3.27.123Z" transform="translate(103.743 41.425)" fill="#ffaa9e"/>
      <path id="Path_897" data-name="Path 897" d="M198.058,72.767s-2.41-.23-2.518.86c0,0,0,.737,2.042.89s2.671,0,2.917-.706S199.194,72.782,198.058,72.767Z" transform="translate(104.639 38.951)" fill="#081921"/>
      <path id="Path_898" data-name="Path 898" d="M198.349,76.928a1.013,1.013,0,1,1-1.243-.768,1.028,1.028,0,0,1,1.243.768Z" transform="translate(105.07 40.762)" fill="#081921"/>
      <path id="Path_899" data-name="Path 899" d="M196.49,82.158a3.592,3.592,0,0,0,2.364-1.228" transform="translate(105.147 43.33)" fill="none" stroke="#081921" stroke-linecap="round" stroke-linejoin="round" stroke-width="0.44"/>
      <path id="Path_900" data-name="Path 900" d="M212.055,81.212s8.121-19.68-15.935-11.943c0,0,7.43-11.667,22.689-5.864a11.744,11.744,0,0,1,7.246,8.105c1.458,5.987-5.619,15.72-4.605,21.492,0,0-5.312.154-7.461-6.57C213.559,84.9,212.055,81.212,212.055,81.212Z" transform="translate(104.949 33.086)" fill="#312220"/>
      <path id="Path_901" data-name="Path 901" d="M218.343,62.792s-19.957-4.605-25.422,2.333c-2.518,3.178.338,7.906,4.268,8.9h.092s7.4,1.105,20.095-1.827C219.893,71.589,218.343,62.792,218.343,62.792Z" transform="translate(102.729 32.822)" fill="#312220"/>
      <path id="Path_902" data-name="Path 902" d="M203.7,69.075s-6.709,8.689,7.246,11.9l5.143-8.812-3.393-6.8Z" transform="translate(108.144 34.998)" fill="#312220"/>
      <path id="Path_903" data-name="Path 903" d="M214.322,76.495a4.79,4.79,0,1,1-5.45-4.037,4.79,4.79,0,0,1,5.45,4.037Z" transform="translate(109.591 38.77)" fill="#ffaa9e"/>
      <path id="Path_904" data-name="Path 904" d="M206.939,77.833s-.507-3.439,2.855-3.393" transform="translate(110.725 39.857)" fill="none" stroke="#081921" stroke-linecap="round" stroke-linejoin="round" stroke-width="0.44"/>
      <path id="Path_905" data-name="Path 905" d="M205.032,95.255a105.063,105.063,0,0,1,20.187-5s-2.318,7.676-12.6,10.347S205.032,95.255,205.032,95.255Z" transform="translate(109.547 48.318)" fill="#ffaa9e"/>
      <line id="Line_63" data-name="Line 63" x2="583.288" transform="translate(0 360.885)" fill="none" stroke="#dae0ef" stroke-miterlimit="10" stroke-width="1"/>
    </g>
  </g>
</svg>
